<svg width="673" height="316" viewBox="0 0 673 316" fill="none" xmlns="http://www.w3.org/2000/svg">
<g filter="url(#filter0_d_1323_60409)">
<rect x="2" y="2" width="669" height="312" rx="16" fill="white"/>
<rect x="2.25" y="2.25" width="668.5" height="311.5" rx="15.75" stroke="#F5F7FA" stroke-width="0.5"/>
<path d="M28.574 31.22L31.832 36.908L35.072 31.22H37.232L32.786 38.852V44H30.878V38.852L26.396 31.22H28.574ZM41.3482 44.216C40.4362 44.216 39.6382 44.012 38.9542 43.604C38.2822 43.196 37.7602 42.62 37.3882 41.876C37.0162 41.12 36.8302 40.238 36.8302 39.23C36.8302 38.222 37.0162 37.346 37.3882 36.602C37.7602 35.846 38.2822 35.264 38.9542 34.856C39.6382 34.448 40.4362 34.244 41.3482 34.244C42.2482 34.244 43.0402 34.448 43.7242 34.856C44.4082 35.264 44.9362 35.846 45.3082 36.602C45.6802 37.346 45.8662 38.222 45.8662 39.23C45.8662 40.238 45.6802 41.12 45.3082 41.876C44.9362 42.62 44.4082 43.196 43.7242 43.604C43.0402 44.012 42.2482 44.216 41.3482 44.216ZM41.3482 42.578C42.1642 42.578 42.7942 42.284 43.2382 41.696C43.6942 41.108 43.9222 40.286 43.9222 39.23C43.9222 38.174 43.6942 37.352 43.2382 36.764C42.7942 36.176 42.1642 35.882 41.3482 35.882C40.5202 35.882 39.8842 36.176 39.4402 36.764C38.9962 37.352 38.7742 38.174 38.7742 39.23C38.7742 40.286 38.9962 41.108 39.4402 41.696C39.8842 42.284 40.5202 42.578 41.3482 42.578ZM53.3192 44L53.3012 41.534L53.5172 41.714C53.3612 42.566 53.0072 43.196 52.4552 43.604C51.9032 44.012 51.2432 44.216 50.4752 44.216C49.4552 44.216 48.6692 43.88 48.1172 43.208C47.5652 42.536 47.2892 41.666 47.2892 40.598V34.46H49.1612V40.022C49.1612 40.61 49.2212 41.096 49.3412 41.48C49.4732 41.852 49.6652 42.14 49.9172 42.344C50.1812 42.536 50.5292 42.632 50.9612 42.632C51.6452 42.632 52.1912 42.41 52.5992 41.966C53.0072 41.51 53.2112 40.862 53.2112 40.022V34.46H55.0832V44H53.3192ZM58.947 34.46L59.019 37.034L58.875 36.908C58.983 36.056 59.229 35.438 59.613 35.054C59.997 34.658 60.549 34.46 61.269 34.46H62.187V36.008H61.251C60.771 36.008 60.369 36.098 60.045 36.278C59.721 36.458 59.481 36.728 59.325 37.088C59.181 37.436 59.109 37.88 59.109 38.42V44H57.237V34.46H58.947ZM69.253 31.22V35.702C69.541 35.234 69.925 34.874 70.405 34.622C70.885 34.37 71.467 34.244 72.151 34.244C73.027 34.244 73.765 34.472 74.365 34.928C74.977 35.372 75.433 35.972 75.733 36.728C76.033 37.484 76.183 38.318 76.183 39.23C76.183 40.142 76.033 40.976 75.733 41.732C75.433 42.488 74.977 43.094 74.365 43.55C73.765 43.994 73.027 44.216 72.151 44.216C71.443 44.216 70.837 44.084 70.333 43.82C69.829 43.544 69.445 43.16 69.181 42.668L69.127 44H67.381V31.22H69.253ZM69.109 39.23C69.109 39.83 69.199 40.382 69.379 40.886C69.559 41.39 69.841 41.798 70.225 42.11C70.609 42.422 71.095 42.578 71.683 42.578C72.535 42.578 73.171 42.254 73.591 41.606C74.023 40.958 74.239 40.166 74.239 39.23C74.239 38.258 74.023 37.448 73.591 36.8C73.171 36.152 72.535 35.828 71.683 35.828C71.095 35.828 70.609 35.984 70.225 36.296C69.841 36.608 69.559 37.022 69.379 37.538C69.199 38.042 69.109 38.606 69.109 39.23ZM77.3375 37.304C77.5295 36.356 77.9795 35.612 78.6875 35.072C79.3955 34.52 80.2955 34.244 81.3875 34.244C82.6835 34.244 83.6735 34.592 84.3575 35.288C85.0415 35.972 85.3835 36.968 85.3835 38.276V41.876C85.3835 42.092 85.4315 42.248 85.5275 42.344C85.6235 42.44 85.7675 42.488 85.9595 42.488H86.3555V44H85.7255H85.6535C85.3175 44 85.0055 43.964 84.7175 43.892C84.4295 43.82 84.1835 43.676 83.9795 43.46C83.7755 43.244 83.6675 42.938 83.6555 42.542C83.4275 43.022 83.0495 43.424 82.5215 43.748C81.9935 44.06 81.3575 44.216 80.6135 44.216C79.6175 44.216 78.7955 43.97 78.1475 43.478C77.4995 42.986 77.1755 42.326 77.1755 41.498C77.1755 40.886 77.3135 40.394 77.5895 40.022C77.8775 39.65 78.2735 39.362 78.7775 39.158C79.2935 38.954 79.9595 38.774 80.7755 38.618L83.5115 38.078C83.4995 37.31 83.3195 36.74 82.9715 36.368C82.6235 35.996 82.0955 35.81 81.3875 35.81C80.8355 35.81 80.3795 35.948 80.0195 36.224C79.6595 36.5 79.4075 36.902 79.2635 37.43L77.3375 37.304ZM79.1195 41.462C79.1195 41.834 79.2755 42.14 79.5875 42.38C79.9115 42.62 80.3735 42.74 80.9735 42.74C81.4655 42.74 81.9035 42.626 82.2875 42.398C82.6835 42.158 82.9895 41.804 83.2055 41.336C83.4335 40.868 83.5475 40.298 83.5475 39.626V39.536L81.4955 39.896L81.1535 39.95C80.6615 40.046 80.2835 40.136 80.0195 40.22C79.7555 40.292 79.5395 40.43 79.3715 40.634C79.2035 40.838 79.1195 41.114 79.1195 41.462ZM89.6296 31.22V41.822C89.6296 42.026 89.6776 42.182 89.7736 42.29C89.8816 42.398 90.0376 42.452 90.2416 42.452H91.0336V44H89.8456C89.2216 44 88.7176 43.808 88.3336 43.424C87.9496 43.04 87.7576 42.536 87.7576 41.912V31.22H89.6296ZM91.9464 37.304C92.1384 36.356 92.5884 35.612 93.2964 35.072C94.0044 34.52 94.9044 34.244 95.9964 34.244C97.2924 34.244 98.2824 34.592 98.9664 35.288C99.6504 35.972 99.9924 36.968 99.9924 38.276V41.876C99.9924 42.092 100.04 42.248 100.136 42.344C100.232 42.44 100.376 42.488 100.568 42.488H100.964V44H100.334H100.262C99.9264 44 99.6144 43.964 99.3264 43.892C99.0384 43.82 98.7924 43.676 98.5884 43.46C98.3844 43.244 98.2764 42.938 98.2644 42.542C98.0364 43.022 97.6584 43.424 97.1304 43.748C96.6024 44.06 95.9664 44.216 95.2224 44.216C94.2264 44.216 93.4044 43.97 92.7564 43.478C92.1084 42.986 91.7844 42.326 91.7844 41.498C91.7844 40.886 91.9224 40.394 92.1984 40.022C92.4864 39.65 92.8824 39.362 93.3864 39.158C93.9024 38.954 94.5684 38.774 95.3844 38.618L98.1204 38.078C98.1084 37.31 97.9284 36.74 97.5804 36.368C97.2324 35.996 96.7044 35.81 95.9964 35.81C95.4444 35.81 94.9884 35.948 94.6284 36.224C94.2684 36.5 94.0164 36.902 93.8724 37.43L91.9464 37.304ZM93.7284 41.462C93.7284 41.834 93.8844 42.14 94.1964 42.38C94.5204 42.62 94.9824 42.74 95.5824 42.74C96.0744 42.74 96.5124 42.626 96.8964 42.398C97.2924 42.158 97.5984 41.804 97.8144 41.336C98.0424 40.868 98.1564 40.298 98.1564 39.626V39.536L96.1044 39.896L95.7624 39.95C95.2704 40.046 94.8924 40.136 94.6284 40.22C94.3644 40.292 94.1484 40.43 93.9804 40.634C93.8124 40.838 93.7284 41.114 93.7284 41.462ZM103.845 34.46L103.935 36.998L103.701 36.8C103.857 35.936 104.211 35.294 104.763 34.874C105.327 34.454 106.011 34.244 106.815 34.244C107.847 34.244 108.639 34.58 109.191 35.252C109.755 35.912 110.037 36.782 110.037 37.862V44H108.165V38.42C108.165 37.844 108.105 37.37 107.985 36.998C107.865 36.614 107.667 36.326 107.391 36.134C107.127 35.93 106.773 35.828 106.329 35.828C105.609 35.828 105.045 36.05 104.637 36.494C104.229 36.938 104.025 37.58 104.025 38.42V44H102.153V34.46H103.845ZM117.959 37.79C117.875 37.202 117.623 36.74 117.203 36.404C116.783 36.056 116.297 35.882 115.745 35.882C114.917 35.882 114.281 36.176 113.837 36.764C113.393 37.352 113.171 38.174 113.171 39.23C113.171 40.286 113.393 41.108 113.837 41.696C114.281 42.284 114.917 42.578 115.745 42.578C116.333 42.578 116.831 42.398 117.239 42.038C117.659 41.666 117.923 41.156 118.031 40.508L119.993 40.616C119.897 41.348 119.645 41.99 119.237 42.542C118.841 43.082 118.337 43.496 117.725 43.784C117.125 44.072 116.465 44.216 115.745 44.216C114.833 44.216 114.035 44.012 113.351 43.604C112.679 43.196 112.157 42.62 111.785 41.876C111.413 41.12 111.227 40.238 111.227 39.23C111.227 38.222 111.413 37.346 111.785 36.602C112.157 35.846 112.679 35.264 113.351 34.856C114.035 34.448 114.833 34.244 115.745 34.244C116.441 34.244 117.089 34.388 117.689 34.676C118.301 34.952 118.799 35.348 119.183 35.864C119.579 36.38 119.819 36.986 119.903 37.682L117.959 37.79ZM120.703 39.23C120.703 38.222 120.889 37.346 121.261 36.602C121.633 35.846 122.161 35.264 122.845 34.856C123.529 34.448 124.321 34.244 125.221 34.244C126.001 34.244 126.703 34.418 127.327 34.766C127.963 35.114 128.473 35.654 128.857 36.386C129.253 37.118 129.469 38.03 129.505 39.122L129.523 39.77H122.665C122.737 40.67 122.995 41.366 123.439 41.858C123.883 42.35 124.477 42.596 125.221 42.596C125.701 42.596 126.139 42.47 126.535 42.218C126.931 41.954 127.225 41.594 127.417 41.138L129.379 41.282C129.103 42.17 128.581 42.884 127.813 43.424C127.057 43.952 126.193 44.216 125.221 44.216C124.321 44.216 123.529 44.012 122.845 43.604C122.161 43.196 121.633 42.62 121.261 41.876C120.889 41.12 120.703 40.238 120.703 39.23ZM127.543 38.33C127.423 37.478 127.153 36.854 126.733 36.458C126.313 36.062 125.809 35.864 125.221 35.864C124.525 35.864 123.961 36.08 123.529 36.512C123.097 36.944 122.821 37.55 122.701 38.33H127.543ZM136.508 37.448C136.412 36.956 136.154 36.566 135.734 36.278C135.326 35.978 134.864 35.828 134.348 35.828C133.844 35.828 133.424 35.954 133.088 36.206C132.752 36.446 132.59 36.77 132.602 37.178C132.602 37.562 132.8 37.862 133.196 38.078C133.592 38.294 134.096 38.462 134.708 38.582C135.572 38.738 136.28 38.924 136.832 39.14C137.384 39.356 137.816 39.656 138.128 40.04C138.44 40.424 138.596 40.916 138.596 41.516C138.596 42.116 138.41 42.62 138.038 43.028C137.678 43.424 137.204 43.724 136.616 43.928C136.04 44.12 135.41 44.216 134.726 44.216C133.922 44.216 133.202 44.084 132.566 43.82C131.93 43.556 131.426 43.184 131.054 42.704C130.682 42.212 130.472 41.642 130.424 40.994L132.35 40.868C132.422 41.24 132.554 41.558 132.746 41.822C132.95 42.074 133.214 42.272 133.538 42.416C133.874 42.548 134.264 42.614 134.708 42.614C135.212 42.614 135.662 42.524 136.058 42.344C136.454 42.152 136.652 41.852 136.652 41.444C136.64 41.156 136.55 40.928 136.382 40.76C136.226 40.592 136.028 40.466 135.788 40.382C135.548 40.298 135.218 40.214 134.798 40.13C134.702 40.118 134.564 40.088 134.384 40.04C133.58 39.872 132.92 39.692 132.404 39.5C131.888 39.296 131.468 39.014 131.144 38.654C130.82 38.282 130.658 37.814 130.658 37.25C130.658 36.638 130.814 36.11 131.126 35.666C131.438 35.21 131.882 34.862 132.458 34.622C133.046 34.37 133.73 34.244 134.51 34.244C135.53 34.244 136.4 34.526 137.12 35.09C137.84 35.642 138.278 36.392 138.434 37.34L136.508 37.448Z" fill="#0E121B"/>
<path d="M153.001 31.25C157.045 31.25 160.409 34.16 161.115 38C160.41 41.84 157.045 44.75 153.001 44.75C148.957 44.75 145.592 41.84 144.887 38C145.592 34.16 148.957 31.25 153.001 31.25ZM153.001 43.25C154.531 43.2497 156.015 42.7301 157.211 41.7764C158.406 40.8226 159.243 39.4912 159.584 38C159.242 36.51 158.405 35.18 157.209 34.2275C156.013 33.275 154.53 32.7564 153.001 32.7564C151.472 32.7564 149.989 33.275 148.793 34.2275C147.597 35.18 146.76 36.51 146.418 38C146.759 39.4912 147.595 40.8226 148.791 41.7764C149.987 42.7301 151.471 43.2497 153.001 43.25ZM153.001 41.375C152.106 41.375 151.247 41.0194 150.614 40.3865C149.982 39.7535 149.626 38.8951 149.626 38C149.626 37.1049 149.982 36.2464 150.614 35.6135C151.247 34.9806 152.106 34.625 153.001 34.625C153.896 34.625 154.755 34.9806 155.387 35.6135C156.02 36.2464 156.376 37.1049 156.376 38C156.376 38.8951 156.02 39.7535 155.387 40.3865C154.755 41.0194 153.896 41.375 153.001 41.375ZM153.001 39.875C153.498 39.875 153.975 39.6775 154.327 39.3258C154.678 38.9742 154.876 38.4973 154.876 38C154.876 37.5027 154.678 37.0258 154.327 36.6742C153.975 36.3225 153.498 36.125 153.001 36.125C152.504 36.125 152.027 36.3225 151.675 36.6742C151.324 37.0258 151.126 37.5027 151.126 38C151.126 38.4973 151.324 38.9742 151.675 39.3258C152.027 39.6775 152.504 39.875 153.001 39.875Z" fill="#525866"/>
<rect x="26.25" y="66.25" width="620.5" height="223.5" rx="11.75" fill="white"/>
<rect x="26.25" y="66.25" width="620.5" height="223.5" rx="11.75" stroke="#E1E4EA" stroke-width="0.5"/>
<path d="M157.5 110C157.5 104.477 161.977 100 167.5 100H505.5C511.023 100 515.5 104.477 515.5 110V126C515.5 131.523 511.023 136 505.5 136H167.5C161.977 136 157.5 131.523 157.5 126V110Z" fill="#F5F7FA"/>
<g clip-path="url(#clip0_1323_60409)">
<path d="M186.25 128C191.773 128 196.25 123.523 196.25 118C196.25 112.477 191.773 108 186.25 108C180.727 108 176.25 112.477 176.25 118C176.25 123.523 180.727 128 186.25 128Z" fill="white"/>
<path d="M185.814 117.999H196.249C196.249 117.097 196.129 116.222 195.905 115.391H185.814V117.999Z" fill="#D80027"/>
<path d="M185.814 112.783H194.781C194.169 111.784 193.387 110.901 192.474 110.174H185.814V112.783Z" fill="#D80027"/>
<path d="M186.248 128C188.602 128 190.765 127.187 192.473 125.826H180.023C181.732 127.187 183.895 128 186.248 128Z" fill="#D80027"/>
<path d="M177.717 123.218H194.782C195.273 122.416 195.654 121.54 195.905 120.609H176.594C176.844 121.54 177.226 122.416 177.717 123.218Z" fill="#D80027"/>
<path d="M180.882 109.562H181.793L180.946 110.177L181.27 111.174L180.422 110.558L179.574 111.174L179.854 110.313C179.108 110.935 178.454 111.663 177.915 112.475H178.207L177.667 112.867C177.583 113.007 177.502 113.149 177.425 113.294L177.683 114.087L177.202 113.738C177.082 113.991 176.973 114.25 176.875 114.514L177.159 115.388H178.207L177.359 116.004L177.683 117L176.835 116.384L176.327 116.753C176.276 117.162 176.25 117.578 176.25 118H186.25C186.25 112.477 186.25 111.826 186.25 108C184.275 108 182.433 108.573 180.882 109.562ZM181.27 117L180.422 116.384L179.574 117L179.898 116.004L179.051 115.388H180.098L180.422 114.391L180.746 115.388H181.793L180.946 116.004L181.27 117ZM180.946 113.091L181.27 114.087L180.422 113.471L179.574 114.087L179.898 113.091L179.051 112.475H180.098L180.422 111.478L180.746 112.475H181.793L180.946 113.091ZM184.857 117L184.009 116.384L183.161 117L183.485 116.004L182.637 115.388H183.685L184.009 114.391L184.333 115.388H185.38L184.533 116.004L184.857 117ZM184.533 113.091L184.857 114.087L184.009 113.471L183.161 114.087L183.485 113.091L182.637 112.475H183.685L184.009 111.478L184.333 112.475H185.38L184.533 113.091ZM184.533 110.177L184.857 111.174L184.009 110.558L183.161 111.174L183.485 110.177L182.637 109.562H183.685L184.009 108.565L184.333 109.562H185.38L184.533 110.177Z" fill="#0052B4"/>
</g>
<path d="M211.41 119.5C211.41 120.247 211.251 120.905 210.934 121.474C210.626 122.034 210.183 122.468 209.604 122.776C209.025 123.075 208.344 123.224 207.56 123.224C206.776 123.224 206.095 123.075 205.516 122.776C204.937 122.468 204.489 122.034 204.172 121.474C203.864 120.905 203.71 120.247 203.71 119.5V113.046H205.194V119.5C205.194 120.247 205.399 120.825 205.81 121.236C206.221 121.647 206.804 121.852 207.56 121.852C208.316 121.852 208.899 121.647 209.31 121.236C209.721 120.825 209.926 120.247 209.926 119.5V113.046H211.41V119.5ZM214.453 119.71C214.537 120.13 214.686 120.499 214.901 120.816C215.125 121.133 215.419 121.376 215.783 121.544C216.147 121.712 216.567 121.796 217.043 121.796C217.444 121.796 217.79 121.745 218.079 121.642C218.378 121.539 218.606 121.385 218.765 121.18C218.924 120.975 219.003 120.727 219.003 120.438C219.003 119.981 218.793 119.603 218.373 119.304C217.962 118.996 217.286 118.725 216.343 118.492C215.363 118.249 214.579 117.899 213.991 117.442C213.412 116.985 213.123 116.378 213.123 115.622C213.123 115.062 213.268 114.572 213.557 114.152C213.846 113.732 214.243 113.41 214.747 113.186C215.26 112.953 215.853 112.836 216.525 112.836C217.234 112.836 217.864 112.976 218.415 113.256C218.966 113.527 219.404 113.905 219.731 114.39C220.058 114.866 220.263 115.421 220.347 116.056L218.821 116.14C218.765 115.748 218.634 115.407 218.429 115.118C218.224 114.819 217.953 114.591 217.617 114.432C217.29 114.273 216.917 114.194 216.497 114.194C215.956 114.194 215.512 114.325 215.167 114.586C214.822 114.847 214.654 115.197 214.663 115.636C214.663 115.963 214.77 116.233 214.985 116.448C215.209 116.653 215.47 116.817 215.769 116.938C216.068 117.05 216.469 117.176 216.973 117.316L217.183 117.372C218.219 117.643 219.036 118.021 219.633 118.506C220.24 118.982 220.543 119.589 220.543 120.326C220.543 120.923 220.38 121.437 220.053 121.866C219.726 122.295 219.288 122.622 218.737 122.846C218.196 123.061 217.603 123.168 216.959 123.168C216.222 123.168 215.554 123.033 214.957 122.762C214.369 122.482 213.898 122.085 213.543 121.572C213.188 121.059 212.983 120.466 212.927 119.794L214.453 119.71ZM225.296 113.06C226.845 113.06 228.04 113.494 228.88 114.362C229.729 115.221 230.154 116.448 230.154 118.044C230.154 119.631 229.738 120.853 228.908 121.712C228.086 122.571 226.91 123 225.38 123H222.118V113.06H225.296ZM225.296 121.628C226.406 121.628 227.237 121.329 227.788 120.732C228.338 120.135 228.614 119.239 228.614 118.044C228.614 116.831 228.338 115.925 227.788 115.328C227.237 114.731 226.406 114.432 225.296 114.432H223.602V121.628H225.296Z" fill="#99A0AE"/>
<g clip-path="url(#clip1_1323_60409)">
<path d="M274.75 128C280.273 128 284.75 123.523 284.75 118C284.75 112.477 280.273 108 274.75 108C269.227 108 264.75 112.477 264.75 118C264.75 123.523 269.227 128 274.75 128Z" fill="white"/>
<path d="M266.816 111.91C266.031 112.932 265.439 114.11 265.094 115.39H270.296L266.816 111.91Z" fill="#0052B4"/>
<path d="M284.405 115.39C284.06 114.11 283.468 112.932 282.683 111.91L279.203 115.39H284.405Z" fill="#0052B4"/>
<path d="M265.094 120.607C265.439 121.887 266.031 123.065 266.816 124.087L270.296 120.607H265.094Z" fill="#0052B4"/>
<path d="M280.837 110.066C279.815 109.281 278.637 108.689 277.357 108.344V113.546L280.837 110.066Z" fill="#0052B4"/>
<path d="M268.66 125.933C269.682 126.718 270.86 127.31 272.14 127.655V122.453L268.66 125.933Z" fill="#0052B4"/>
<path d="M272.14 108.344C270.86 108.689 269.682 109.281 268.66 110.066L272.14 113.546V108.344Z" fill="#0052B4"/>
<path d="M277.357 127.655C278.637 127.31 279.815 126.718 280.837 125.933L277.357 122.453V127.655Z" fill="#0052B4"/>
<path d="M279.203 120.607L282.683 124.087C283.468 123.065 284.06 121.887 284.405 120.607H279.203Z" fill="#0052B4"/>
<path d="M284.665 116.696H276.054H276.054V108.085C275.627 108.029 275.192 108 274.75 108C274.308 108 273.873 108.029 273.446 108.085V116.696V116.696H264.835C264.779 117.123 264.75 117.558 264.75 118C264.75 118.442 264.779 118.877 264.835 119.304H273.446H273.446V127.915C273.873 127.971 274.308 128 274.75 128C275.192 128 275.627 127.971 276.054 127.915V119.304V119.304H284.665C284.721 118.877 284.75 118.442 284.75 118C284.75 117.558 284.721 117.123 284.665 116.696Z" fill="#D80027"/>
<path d="M277.359 120.609L281.822 125.072C282.027 124.867 282.223 124.652 282.41 124.43L278.589 120.609H277.359V120.609Z" fill="#D80027"/>
<path d="M272.142 120.609H272.142L267.68 125.072C267.885 125.277 268.099 125.473 268.322 125.659L272.142 121.839V120.609Z" fill="#D80027"/>
<path d="M272.142 115.392V115.392L267.68 110.93C267.474 111.135 267.279 111.349 267.092 111.572L270.912 115.392H272.142V115.392Z" fill="#D80027"/>
<path d="M277.359 115.392L281.822 110.93C281.617 110.724 281.402 110.529 281.18 110.342L277.359 114.162V115.392Z" fill="#D80027"/>
</g>
<path d="M299.401 123L299.247 120.816L299.415 121.04C299.322 121.46 299.121 121.838 298.813 122.174C298.515 122.501 298.141 122.757 297.693 122.944C297.255 123.131 296.793 123.224 296.307 123.224C295.374 123.224 294.567 122.995 293.885 122.538C293.204 122.081 292.677 121.46 292.303 120.676C291.939 119.892 291.757 119.015 291.757 118.044C291.757 117.073 291.939 116.191 292.303 115.398C292.667 114.605 293.195 113.979 293.885 113.522C294.585 113.065 295.402 112.836 296.335 112.836C297.39 112.836 298.267 113.125 298.967 113.704C299.667 114.283 300.134 115.057 300.367 116.028L298.827 116.126C298.669 115.538 298.375 115.071 297.945 114.726C297.516 114.381 296.979 114.208 296.335 114.208C295.645 114.208 295.071 114.381 294.613 114.726C294.165 115.062 293.834 115.519 293.619 116.098C293.405 116.677 293.297 117.325 293.297 118.044C293.297 118.763 293.405 119.407 293.619 119.976C293.834 120.545 294.17 121.003 294.627 121.348C295.085 121.684 295.654 121.852 296.335 121.852C296.849 121.852 297.292 121.74 297.665 121.516C298.048 121.292 298.347 120.984 298.561 120.592C298.776 120.191 298.907 119.738 298.953 119.234H296.321V117.918H300.409V123H299.401ZM302.072 113.06H305.558C306.79 113.06 307.71 113.289 308.316 113.746C308.923 114.194 309.226 114.885 309.226 115.818C309.226 116.238 309.133 116.602 308.946 116.91C308.769 117.218 308.512 117.456 308.176 117.624C307.84 117.792 307.439 117.881 306.972 117.89L306.958 117.834C307.798 117.843 308.456 118.058 308.932 118.478C309.408 118.898 309.646 119.467 309.646 120.186C309.646 121.091 309.343 121.787 308.736 122.272C308.13 122.757 307.257 123 306.118 123H302.072V113.06ZM306.132 121.642C306.767 121.642 307.257 121.511 307.602 121.25C307.948 120.989 308.12 120.615 308.12 120.13C308.12 119.645 307.948 119.271 307.602 119.01C307.257 118.739 306.767 118.604 306.132 118.604H303.556V121.642H306.132ZM305.6 117.288C306.272 117.288 306.79 117.167 307.154 116.924C307.518 116.681 307.7 116.327 307.7 115.86C307.7 115.375 307.523 115.015 307.168 114.782C306.823 114.539 306.3 114.418 305.6 114.418H303.556V117.288H305.6ZM315.099 113.06C315.846 113.06 316.49 113.181 317.031 113.424C317.573 113.667 317.988 114.021 318.277 114.488C318.567 114.945 318.711 115.496 318.711 116.14C318.711 116.784 318.567 117.344 318.277 117.82C317.988 118.287 317.573 118.646 317.031 118.898C316.49 119.141 315.846 119.262 315.099 119.262H312.901V123H311.417V113.06H315.099ZM315.071 117.89C315.762 117.89 316.285 117.745 316.639 117.456C316.994 117.157 317.171 116.719 317.171 116.14C317.171 115.571 316.994 115.146 316.639 114.866C316.285 114.577 315.762 114.432 315.071 114.432H312.901V117.89H315.071Z" fill="#99A0AE"/>
<g filter="url(#filter1_dd_1323_60409)">
<path d="M338.5 110C338.5 106.686 341.186 104 344.5 104H417C420.314 104 423 106.686 423 110V126C423 129.314 420.314 132 417 132H344.5C341.186 132 338.5 129.314 338.5 126V110Z" fill="white"/>
<g clip-path="url(#clip2_1323_60409)">
<path d="M362.25 128C367.773 128 372.25 123.523 372.25 118C372.25 112.477 367.773 108 362.25 108C356.727 108 352.25 112.477 352.25 118C352.25 123.523 356.727 128 362.25 128Z" fill="white"/>
<path d="M352.25 117.999C352.25 122.299 354.964 125.964 358.772 127.377V108.621C354.964 110.034 352.25 113.699 352.25 117.999Z" fill="#6DA544"/>
<path d="M372.25 117.999C372.25 113.699 369.537 110.034 365.729 108.621V127.377C369.537 125.964 372.25 122.299 372.25 117.999Z" fill="#6DA544"/>
</g>
<path d="M381.743 113.06L386.321 121.082V113.06H387.805V123H385.831L381.337 115.16V123H379.853V113.06H381.743ZM397.034 123L396.88 120.816L397.048 121.04C396.955 121.46 396.754 121.838 396.446 122.174C396.148 122.501 395.774 122.757 395.326 122.944C394.888 123.131 394.426 123.224 393.94 123.224C393.007 123.224 392.2 122.995 391.518 122.538C390.837 122.081 390.31 121.46 389.936 120.676C389.572 119.892 389.39 119.015 389.39 118.044C389.39 117.073 389.572 116.191 389.936 115.398C390.3 114.605 390.828 113.979 391.518 113.522C392.218 113.065 393.035 112.836 393.968 112.836C395.023 112.836 395.9 113.125 396.6 113.704C397.3 114.283 397.767 115.057 398 116.028L396.46 116.126C396.302 115.538 396.008 115.071 395.578 114.726C395.149 114.381 394.612 114.208 393.968 114.208C393.278 114.208 392.704 114.381 392.246 114.726C391.798 115.062 391.467 115.519 391.252 116.098C391.038 116.677 390.93 117.325 390.93 118.044C390.93 118.763 391.038 119.407 391.252 119.976C391.467 120.545 391.803 121.003 392.26 121.348C392.718 121.684 393.287 121.852 393.968 121.852C394.482 121.852 394.925 121.74 395.298 121.516C395.681 121.292 395.98 120.984 396.194 120.592C396.409 120.191 396.54 119.738 396.586 119.234H393.954V117.918H398.042V123H397.034ZM401.596 113.06L406.174 121.082V113.06H407.658V123H405.684L401.19 115.16V123H399.706V113.06H401.596Z" fill="#0E121B"/>
</g>
<g clip-path="url(#clip3_1323_60409)">
<path d="M452.25 128C457.773 128 462.25 123.523 462.25 118C462.25 112.477 457.773 108 452.25 108C446.727 108 442.25 112.477 442.25 118C442.25 123.523 446.727 128 452.25 128Z" fill="#335CFF"/>
<path d="M452.25 111.912L452.574 112.909H453.622L452.774 113.524L453.098 114.521L452.25 113.905L451.403 114.521L451.727 113.524L450.879 112.909H451.927L452.25 111.912Z" fill="#FFDA44"/>
<path d="M447.947 113.695L448.88 114.17L449.621 113.43L449.457 114.464L450.391 114.94L449.356 115.104L449.192 116.139L448.716 115.205L447.682 115.369L448.422 114.628L447.947 113.695Z" fill="#FFDA44"/>
<path d="M446.164 117.998L447.161 117.675V116.627L447.776 117.475L448.773 117.151L448.157 117.998L448.773 118.846L447.776 118.522L447.161 119.37V118.322L446.164 117.998Z" fill="#FFDA44"/>
<path d="M447.947 122.303L448.422 121.37L447.682 120.629L448.716 120.793L449.192 119.859L449.356 120.894L450.391 121.058L449.457 121.534L449.621 122.569L448.88 121.828L447.947 122.303Z" fill="#FFDA44"/>
<path d="M452.25 124.085L451.927 123.089H450.879L451.727 122.473L451.403 121.477L452.25 122.092L453.098 121.477L452.774 122.473L453.622 123.089H452.574L452.25 124.085Z" fill="#FFDA44"/>
<path d="M456.555 122.303L455.622 121.828L454.881 122.569L455.045 121.534L454.111 121.058L455.146 120.894L455.31 119.859L455.786 120.793L456.82 120.629L456.08 121.37L456.555 122.303Z" fill="#FFDA44"/>
<path d="M458.337 117.998L457.341 118.322V119.37L456.725 118.522L455.729 118.846L456.344 117.998L455.729 117.151L456.725 117.475L457.341 116.627V117.675L458.337 117.998Z" fill="#FFDA44"/>
<path d="M456.555 113.695L456.08 114.628L456.82 115.369L455.786 115.205L455.31 116.139L455.146 115.104L454.111 114.94L455.045 114.464L454.881 113.43L455.622 114.17L456.555 113.695Z" fill="#FFDA44"/>
</g>
<path d="M476.311 113.06V114.432H471.355V117.344H476.143V118.688H471.355V121.628H476.423V123H469.871V113.06H476.311ZM485.612 119.5C485.612 120.247 485.454 120.905 485.136 121.474C484.828 122.034 484.385 122.468 483.806 122.776C483.228 123.075 482.546 123.224 481.762 123.224C480.978 123.224 480.297 123.075 479.718 122.776C479.14 122.468 478.692 122.034 478.374 121.474C478.066 120.905 477.912 120.247 477.912 119.5V113.046H479.396V119.5C479.396 120.247 479.602 120.825 480.012 121.236C480.423 121.647 481.006 121.852 481.762 121.852C482.518 121.852 483.102 121.647 483.512 121.236C483.923 120.825 484.128 120.247 484.128 119.5V113.046H485.612V119.5ZM491.483 113.06C492.183 113.06 492.79 113.181 493.303 113.424C493.817 113.657 494.213 114.003 494.493 114.46C494.783 114.917 494.927 115.454 494.927 116.07C494.927 116.499 494.829 116.891 494.633 117.246C494.437 117.601 494.176 117.885 493.849 118.1C493.532 118.305 493.191 118.427 492.827 118.464L492.449 118.338C493.233 118.338 493.798 118.469 494.143 118.73C494.489 118.991 494.694 119.449 494.759 120.102L495.025 123H493.527L493.289 120.284C493.252 119.855 493.079 119.551 492.771 119.374C492.473 119.197 491.983 119.108 491.301 119.108H489.033V123H487.549V113.06H491.483ZM491.399 117.736C492.043 117.736 492.533 117.596 492.869 117.316C493.215 117.036 493.387 116.63 493.387 116.098C493.387 115.557 493.215 115.146 492.869 114.866C492.533 114.577 492.043 114.432 491.399 114.432H489.033V117.736H491.399Z" fill="#99A0AE"/>
<rect x="129.75" y="152.25" width="413.5" height="103.5" rx="7.75" stroke="#E1E4EA" stroke-width="0.5"/>
<mask id="path-48-inside-1_1323_60409" fill="white">
<path d="M144.5 168H336.5V240H144.5V168Z"/>
</mask>
<path d="M336.5 168H336V240H336.5H337V168H336.5Z" fill="#E1E4EA" mask="url(#path-48-inside-1_1323_60409)"/>
<path d="M185.4 191L188.998 181.06H190.566L194.164 191H192.876L191.882 188.158H187.682L186.688 191H185.4ZM188.088 187.01H191.476L189.782 182.096L188.088 187.01ZM200.649 183.58L197.933 191H196.505L193.789 183.58H195.021L197.219 189.796L199.417 183.58H200.649ZM201.19 185.764C201.484 184.322 202.632 183.412 204.214 183.412C206.132 183.412 207.196 184.532 207.196 186.52V189.502C207.196 189.838 207.336 189.978 207.658 189.978H207.952V191H207.462C206.706 191 206.048 190.748 206.062 189.838C205.74 190.538 204.9 191.168 203.724 191.168C202.254 191.168 201.064 190.384 201.064 189.068C201.064 187.542 202.226 187.15 203.85 186.828L206.048 186.408C206.034 185.12 205.432 184.504 204.214 184.504C203.262 184.504 202.632 184.994 202.408 185.862L201.19 185.764ZM202.268 189.068C202.268 189.67 202.786 190.16 203.878 190.146C205.11 190.146 206.076 189.278 206.076 187.556V187.43L204.298 187.738C203.192 187.934 202.268 188.018 202.268 189.068ZM209.245 183.58H210.393V191H209.245V183.58ZM209.217 182.418V181.088H210.421V182.418H209.217ZM212.521 181.06H213.669V189.516C213.669 189.838 213.823 189.978 214.145 189.978H214.775V191H213.977C213.095 191 212.521 190.426 212.521 189.572V181.06ZM215.84 185.764C216.134 184.322 217.282 183.412 218.864 183.412C220.782 183.412 221.846 184.532 221.846 186.52V189.502C221.846 189.838 221.986 189.978 222.308 189.978H222.602V191H222.112C221.356 191 220.698 190.748 220.712 189.838C220.39 190.538 219.55 191.168 218.374 191.168C216.904 191.168 215.714 190.384 215.714 189.068C215.714 187.542 216.876 187.15 218.5 186.828L220.698 186.408C220.684 185.12 220.082 184.504 218.864 184.504C217.912 184.504 217.282 184.994 217.058 185.862L215.84 185.764ZM216.918 189.068C216.918 189.67 217.436 190.16 218.528 190.146C219.76 190.146 220.726 189.278 220.726 187.556V187.43L218.948 187.738C217.842 187.934 216.918 188.018 216.918 189.068ZM224.005 181.06H225.153V184.588C225.573 183.832 226.357 183.412 227.449 183.412C229.591 183.412 230.585 185.232 230.585 187.29C230.585 189.348 229.591 191.168 227.449 191.168C226.301 191.168 225.503 190.692 225.083 189.908L225.041 191H224.005V181.06ZM225.055 187.29C225.055 188.704 225.685 190.076 227.211 190.076C228.765 190.076 229.381 188.732 229.381 187.29C229.381 185.806 228.765 184.462 227.211 184.462C225.685 184.462 225.055 185.82 225.055 187.29ZM232.175 181.06H233.323V189.516C233.323 189.838 233.477 189.978 233.799 189.978H234.429V191H233.631C232.749 191 232.175 190.426 232.175 189.572V181.06ZM235.231 187.29C235.231 184.938 236.561 183.412 238.619 183.412C240.271 183.412 241.713 184.518 241.839 187.136L241.853 187.654H236.449C236.561 189.18 237.331 190.076 238.619 190.076C239.431 190.076 240.159 189.6 240.495 188.816L241.727 188.9C241.293 190.3 240.047 191.168 238.619 191.168C236.561 191.168 235.231 189.642 235.231 187.29ZM236.477 186.632H240.593C240.383 185.064 239.543 184.504 238.619 184.504C237.429 184.504 236.659 185.288 236.477 186.632ZM246.647 181.06H247.795V184.588C248.215 183.832 248.999 183.412 250.091 183.412C252.233 183.412 253.227 185.232 253.227 187.29C253.227 189.348 252.233 191.168 250.091 191.168C248.943 191.168 248.145 190.692 247.725 189.908L247.683 191H246.647V181.06ZM247.697 187.29C247.697 188.704 248.327 190.076 249.853 190.076C251.407 190.076 252.023 188.732 252.023 187.29C252.023 185.806 251.407 184.462 249.853 184.462C248.327 184.462 247.697 185.82 247.697 187.29ZM254.451 185.764C254.745 184.322 255.893 183.412 257.475 183.412C259.393 183.412 260.457 184.532 260.457 186.52V189.502C260.457 189.838 260.597 189.978 260.919 189.978H261.213V191H260.723C259.967 191 259.309 190.748 259.323 189.838C259.001 190.538 258.161 191.168 256.985 191.168C255.515 191.168 254.325 190.384 254.325 189.068C254.325 187.542 255.487 187.15 257.111 186.828L259.309 186.408C259.295 185.12 258.693 184.504 257.475 184.504C256.523 184.504 255.893 184.994 255.669 185.862L254.451 185.764ZM255.529 189.068C255.529 189.67 256.047 190.16 257.139 190.146C258.371 190.146 259.337 189.278 259.337 187.556V187.43L257.559 187.738C256.453 187.934 255.529 188.018 255.529 189.068ZM262.644 181.06H263.792V189.516C263.792 189.838 263.946 189.978 264.268 189.978H264.898V191H264.1C263.218 191 262.644 190.426 262.644 189.572V181.06ZM265.963 185.764C266.257 184.322 267.405 183.412 268.987 183.412C270.905 183.412 271.969 184.532 271.969 186.52V189.502C271.969 189.838 272.109 189.978 272.431 189.978H272.725V191H272.235C271.479 191 270.821 190.748 270.835 189.838C270.513 190.538 269.673 191.168 268.497 191.168C267.027 191.168 265.837 190.384 265.837 189.068C265.837 187.542 266.999 187.15 268.623 186.828L270.821 186.408C270.807 185.12 270.205 184.504 268.987 184.504C268.035 184.504 267.405 184.994 267.181 185.862L265.963 185.764ZM267.041 189.068C267.041 189.67 267.559 190.16 268.651 190.146C269.883 190.146 270.849 189.278 270.849 187.556V187.43L269.071 187.738C267.965 187.934 267.041 188.018 267.041 189.068ZM274.019 183.58H275.069L275.111 184.854C275.489 183.86 276.371 183.412 277.393 183.412C279.087 183.412 279.899 184.658 279.899 186.226V191H278.751V186.562C278.751 185.19 278.289 184.434 277.155 184.434C275.951 184.434 275.167 185.19 275.167 186.562V191H274.019V183.58ZM286.442 186.058C286.274 185.078 285.476 184.504 284.566 184.504C283.18 184.504 282.382 185.554 282.382 187.29C282.382 189.026 283.18 190.076 284.566 190.076C285.518 190.076 286.33 189.446 286.498 188.382L287.716 188.452C287.478 190.132 286.148 191.168 284.566 191.168C282.508 191.168 281.178 189.642 281.178 187.29C281.178 184.938 282.508 183.412 284.566 183.412C286.092 183.412 287.45 184.392 287.646 185.974L286.442 186.058ZM288.608 187.29C288.608 184.938 289.938 183.412 291.996 183.412C293.648 183.412 295.09 184.518 295.216 187.136L295.23 187.654H289.826C289.938 189.18 290.708 190.076 291.996 190.076C292.808 190.076 293.536 189.6 293.872 188.816L295.104 188.9C294.67 190.3 293.424 191.168 291.996 191.168C289.938 191.168 288.608 189.642 288.608 187.29ZM289.854 186.632H293.97C293.76 185.064 292.92 184.504 291.996 184.504C290.806 184.504 290.036 185.288 289.854 186.632Z" fill="#525866"/>
<path d="M209.612 224V217.832H207.74V216.296H209.612V214.328H207.74V212.792H209.612V206.864H212.108L214.388 212.792H217.22V206.864H219.116V212.792H220.988V214.328H219.116V216.296H220.988V217.832H219.116V224H216.596L214.316 217.832H211.484V224H209.612ZM211.484 216.296H213.74L213.02 214.328H211.436L211.484 216.296ZM217.22 220.616H217.316L217.244 217.832H216.236L217.22 220.616ZM211.436 212.792H212.444L211.436 209.816H211.34L211.436 212.792ZM215.66 216.296H217.268L217.22 214.328H214.94L215.66 216.296Z" fill="#99A0AE"/>
<path d="M229.106 224.384C227.65 224.384 226.394 224.024 225.338 223.304C224.282 222.568 223.466 221.536 222.89 220.208C222.33 218.864 222.05 217.296 222.05 215.504C222.05 213.696 222.33 212.12 222.89 210.776C223.466 209.432 224.282 208.4 225.338 207.68C226.394 206.944 227.65 206.576 229.106 206.576C230.562 206.576 231.818 206.944 232.874 207.68C233.946 208.4 234.762 209.432 235.322 210.776C235.882 212.12 236.162 213.696 236.162 215.504C236.162 217.296 235.882 218.864 235.322 220.208C234.762 221.536 233.946 222.568 232.874 223.304C231.818 224.024 230.562 224.384 229.106 224.384ZM229.106 221.72C229.954 221.72 230.674 221.48 231.266 221C231.858 220.52 232.298 219.816 232.586 218.888C232.89 217.96 233.042 216.832 233.042 215.504C233.042 214.16 232.89 213.024 232.586 212.096C232.298 211.152 231.858 210.44 231.266 209.96C230.674 209.48 229.954 209.24 229.106 209.24C228.258 209.24 227.538 209.48 226.946 209.96C226.37 210.44 225.93 211.152 225.626 212.096C225.322 213.024 225.17 214.16 225.17 215.504C225.17 216.832 225.322 217.96 225.626 218.888C225.93 219.816 226.37 220.52 226.946 221C227.538 221.48 228.258 221.72 229.106 221.72ZM240.896 220.808V224H237.536V220.808H240.896ZM249.298 224.384C247.842 224.384 246.586 224.024 245.53 223.304C244.474 222.568 243.658 221.536 243.082 220.208C242.522 218.864 242.242 217.296 242.242 215.504C242.242 213.696 242.522 212.12 243.082 210.776C243.658 209.432 244.474 208.4 245.53 207.68C246.586 206.944 247.842 206.576 249.298 206.576C250.754 206.576 252.01 206.944 253.066 207.68C254.138 208.4 254.954 209.432 255.514 210.776C256.074 212.12 256.354 213.696 256.354 215.504C256.354 217.296 256.074 218.864 255.514 220.208C254.954 221.536 254.138 222.568 253.066 223.304C252.01 224.024 250.754 224.384 249.298 224.384ZM249.298 221.72C250.146 221.72 250.866 221.48 251.458 221C252.05 220.52 252.49 219.816 252.778 218.888C253.082 217.96 253.234 216.832 253.234 215.504C253.234 214.16 253.082 213.024 252.778 212.096C252.49 211.152 252.05 210.44 251.458 209.96C250.866 209.48 250.146 209.24 249.298 209.24C248.45 209.24 247.73 209.48 247.138 209.96C246.562 210.44 246.122 211.152 245.818 212.096C245.514 213.024 245.362 214.16 245.362 215.504C245.362 216.832 245.514 217.96 245.818 218.888C246.122 219.816 246.562 220.52 247.138 221C247.73 221.48 248.45 221.72 249.298 221.72ZM265.3 224.384C263.844 224.384 262.588 224.024 261.532 223.304C260.476 222.568 259.66 221.536 259.084 220.208C258.524 218.864 258.244 217.296 258.244 215.504C258.244 213.696 258.524 212.12 259.084 210.776C259.66 209.432 260.476 208.4 261.532 207.68C262.588 206.944 263.844 206.576 265.3 206.576C266.756 206.576 268.012 206.944 269.068 207.68C270.14 208.4 270.956 209.432 271.516 210.776C272.076 212.12 272.356 213.696 272.356 215.504C272.356 217.296 272.076 218.864 271.516 220.208C270.956 221.536 270.14 222.568 269.068 223.304C268.012 224.024 266.756 224.384 265.3 224.384ZM265.3 221.72C266.148 221.72 266.868 221.48 267.46 221C268.052 220.52 268.492 219.816 268.78 218.888C269.084 217.96 269.236 216.832 269.236 215.504C269.236 214.16 269.084 213.024 268.78 212.096C268.492 211.152 268.052 210.44 267.46 209.96C266.868 209.48 266.148 209.24 265.3 209.24C264.452 209.24 263.732 209.48 263.14 209.96C262.564 210.44 262.124 211.152 261.82 212.096C261.516 213.024 261.364 214.16 261.364 215.504C261.364 216.832 261.516 217.96 261.82 218.888C262.124 219.816 262.564 220.52 263.14 221C263.732 221.48 264.452 221.72 265.3 221.72Z" fill="#0E121B"/>
<path d="M385.232 181.06C387.444 181.06 388.746 182.18 388.746 184.056C388.746 185.974 387.444 187.122 385.232 187.122H382.852V191H381.676V181.06H385.232ZM382.852 185.974H385.232C386.758 185.974 387.514 185.33 387.514 184.056C387.514 182.824 386.758 182.208 385.232 182.208H382.852V185.974ZM389.502 187.29C389.502 184.938 390.832 183.412 392.89 183.412C394.542 183.412 395.984 184.518 396.11 187.136L396.124 187.654H390.72C390.832 189.18 391.602 190.076 392.89 190.076C393.702 190.076 394.43 189.6 394.766 188.816L395.998 188.9C395.564 190.3 394.318 191.168 392.89 191.168C390.832 191.168 389.502 189.642 389.502 187.29ZM390.748 186.632H394.864C394.654 185.064 393.814 184.504 392.89 184.504C391.7 184.504 390.93 185.288 390.748 186.632ZM397.629 183.58H398.679L398.721 184.854C399.099 183.86 399.981 183.412 401.003 183.412C402.697 183.412 403.509 184.658 403.509 186.226V191H402.361V186.562C402.361 185.19 401.899 184.434 400.765 184.434C399.561 184.434 398.777 185.19 398.777 186.562V191H397.629V183.58ZM411.368 181.06V191H410.332L410.29 189.908C409.87 190.692 409.072 191.168 407.924 191.168C405.782 191.168 404.788 189.348 404.788 187.29C404.788 185.232 405.782 183.412 407.924 183.412C409.016 183.412 409.8 183.832 410.22 184.588V181.06H411.368ZM405.992 187.29C405.992 188.732 406.608 190.076 408.162 190.076C409.688 190.076 410.318 188.704 410.318 187.29C410.318 185.82 409.688 184.462 408.162 184.462C406.608 184.462 405.992 185.806 405.992 187.29ZM413.27 183.58H414.418V191H413.27V183.58ZM413.242 182.418V181.088H414.446V182.418H413.242ZM416.326 183.58H417.376L417.418 184.854C417.796 183.86 418.678 183.412 419.7 183.412C421.394 183.412 422.206 184.658 422.206 186.226V191H421.058V186.562C421.058 185.19 420.596 184.434 419.462 184.434C418.258 184.434 417.474 185.19 417.474 186.562V191H416.326V183.58ZM426.817 190.608C424.787 190.608 423.485 189.096 423.485 187.01C423.485 184.924 424.815 183.412 426.817 183.412C427.811 183.412 428.623 183.972 428.945 184.77V183.58H430.051V190.272C430.051 192.218 428.721 193.268 426.789 193.268C425.207 193.268 424.017 192.4 423.695 191.112L424.899 191.028C425.193 191.742 425.837 192.176 426.789 192.176C428.105 192.176 428.903 191.588 428.903 190.524V189.292C428.455 190.174 427.615 190.608 426.817 190.608ZM424.689 187.01C424.689 188.466 425.487 189.516 426.817 189.516C428.091 189.516 428.903 188.452 428.917 187.01C428.945 185.568 428.133 184.504 426.817 184.504C425.487 184.504 424.689 185.554 424.689 187.01ZM435.365 181.06H436.513V184.588C436.933 183.832 437.717 183.412 438.809 183.412C440.951 183.412 441.945 185.232 441.945 187.29C441.945 189.348 440.951 191.168 438.809 191.168C437.661 191.168 436.863 190.692 436.443 189.908L436.401 191H435.365V181.06ZM436.415 187.29C436.415 188.704 437.045 190.076 438.571 190.076C440.125 190.076 440.741 188.732 440.741 187.29C440.741 185.806 440.125 184.462 438.571 184.462C437.045 184.462 436.415 185.82 436.415 187.29ZM443.169 185.764C443.463 184.322 444.611 183.412 446.193 183.412C448.111 183.412 449.175 184.532 449.175 186.52V189.502C449.175 189.838 449.315 189.978 449.637 189.978H449.931V191H449.441C448.685 191 448.027 190.748 448.041 189.838C447.719 190.538 446.879 191.168 445.703 191.168C444.233 191.168 443.043 190.384 443.043 189.068C443.043 187.542 444.205 187.15 445.829 186.828L448.027 186.408C448.013 185.12 447.411 184.504 446.193 184.504C445.241 184.504 444.611 184.994 444.387 185.862L443.169 185.764ZM444.247 189.068C444.247 189.67 444.765 190.16 445.857 190.146C447.089 190.146 448.055 189.278 448.055 187.556V187.43L446.277 187.738C445.171 187.934 444.247 188.018 444.247 189.068ZM451.362 181.06H452.51V189.516C452.51 189.838 452.664 189.978 452.986 189.978H453.616V191H452.818C451.936 191 451.362 190.426 451.362 189.572V181.06ZM454.682 185.764C454.976 184.322 456.124 183.412 457.706 183.412C459.624 183.412 460.688 184.532 460.688 186.52V189.502C460.688 189.838 460.828 189.978 461.15 189.978H461.444V191H460.954C460.198 191 459.54 190.748 459.554 189.838C459.232 190.538 458.392 191.168 457.216 191.168C455.746 191.168 454.556 190.384 454.556 189.068C454.556 187.542 455.718 187.15 457.342 186.828L459.54 186.408C459.526 185.12 458.924 184.504 457.706 184.504C456.754 184.504 456.124 184.994 455.9 185.862L454.682 185.764ZM455.76 189.068C455.76 189.67 456.278 190.16 457.37 190.146C458.602 190.146 459.568 189.278 459.568 187.556V187.43L457.79 187.738C456.684 187.934 455.76 188.018 455.76 189.068ZM462.737 183.58H463.787L463.829 184.854C464.207 183.86 465.089 183.412 466.111 183.412C467.805 183.412 468.617 184.658 468.617 186.226V191H467.469V186.562C467.469 185.19 467.007 184.434 465.873 184.434C464.669 184.434 463.885 185.19 463.885 186.562V191H462.737V183.58ZM475.16 186.058C474.992 185.078 474.194 184.504 473.284 184.504C471.898 184.504 471.1 185.554 471.1 187.29C471.1 189.026 471.898 190.076 473.284 190.076C474.236 190.076 475.048 189.446 475.216 188.382L476.434 188.452C476.196 190.132 474.866 191.168 473.284 191.168C471.226 191.168 469.896 189.642 469.896 187.29C469.896 184.938 471.226 183.412 473.284 183.412C474.81 183.412 476.168 184.392 476.364 185.974L475.16 186.058ZM477.327 187.29C477.327 184.938 478.657 183.412 480.715 183.412C482.367 183.412 483.809 184.518 483.935 187.136L483.949 187.654H478.545C478.657 189.18 479.427 190.076 480.715 190.076C481.527 190.076 482.255 189.6 482.591 188.816L483.823 188.9C483.389 190.3 482.143 191.168 480.715 191.168C478.657 191.168 477.327 189.642 477.327 187.29ZM478.573 186.632H482.689C482.479 185.064 481.639 184.504 480.715 184.504C479.525 184.504 478.755 185.288 478.573 186.632Z" fill="#525866"/>
<path d="M401.612 224V217.832H399.74V216.296H401.612V214.328H399.74V212.792H401.612V206.864H404.108L406.388 212.792H409.22V206.864H411.116V212.792H412.988V214.328H411.116V216.296H412.988V217.832H411.116V224H408.596L406.316 217.832H403.484V224H401.612ZM403.484 216.296H405.74L405.02 214.328H403.436L403.484 216.296ZM409.22 220.616H409.316L409.244 217.832H408.236L409.22 220.616ZM403.436 212.792H404.444L403.436 209.816H403.34L403.436 212.792ZM407.66 216.296H409.268L409.22 214.328H406.94L407.66 216.296Z" fill="#99A0AE"/>
<path d="M421.106 224.384C419.65 224.384 418.394 224.024 417.338 223.304C416.282 222.568 415.466 221.536 414.89 220.208C414.33 218.864 414.05 217.296 414.05 215.504C414.05 213.696 414.33 212.12 414.89 210.776C415.466 209.432 416.282 208.4 417.338 207.68C418.394 206.944 419.65 206.576 421.106 206.576C422.562 206.576 423.818 206.944 424.874 207.68C425.946 208.4 426.762 209.432 427.322 210.776C427.882 212.12 428.162 213.696 428.162 215.504C428.162 217.296 427.882 218.864 427.322 220.208C426.762 221.536 425.946 222.568 424.874 223.304C423.818 224.024 422.562 224.384 421.106 224.384ZM421.106 221.72C421.954 221.72 422.674 221.48 423.266 221C423.858 220.52 424.298 219.816 424.586 218.888C424.89 217.96 425.042 216.832 425.042 215.504C425.042 214.16 424.89 213.024 424.586 212.096C424.298 211.152 423.858 210.44 423.266 209.96C422.674 209.48 421.954 209.24 421.106 209.24C420.258 209.24 419.538 209.48 418.946 209.96C418.37 210.44 417.93 211.152 417.626 212.096C417.322 213.024 417.17 214.16 417.17 215.504C417.17 216.832 417.322 217.96 417.626 218.888C417.93 219.816 418.37 220.52 418.946 221C419.538 221.48 420.258 221.72 421.106 221.72ZM432.896 220.808V224H429.536V220.808H432.896ZM441.298 224.384C439.842 224.384 438.586 224.024 437.53 223.304C436.474 222.568 435.658 221.536 435.082 220.208C434.522 218.864 434.242 217.296 434.242 215.504C434.242 213.696 434.522 212.12 435.082 210.776C435.658 209.432 436.474 208.4 437.53 207.68C438.586 206.944 439.842 206.576 441.298 206.576C442.754 206.576 444.01 206.944 445.066 207.68C446.138 208.4 446.954 209.432 447.514 210.776C448.074 212.12 448.354 213.696 448.354 215.504C448.354 217.296 448.074 218.864 447.514 220.208C446.954 221.536 446.138 222.568 445.066 223.304C444.01 224.024 442.754 224.384 441.298 224.384ZM441.298 221.72C442.146 221.72 442.866 221.48 443.458 221C444.05 220.52 444.49 219.816 444.778 218.888C445.082 217.96 445.234 216.832 445.234 215.504C445.234 214.16 445.082 213.024 444.778 212.096C444.49 211.152 444.05 210.44 443.458 209.96C442.866 209.48 442.146 209.24 441.298 209.24C440.45 209.24 439.73 209.48 439.138 209.96C438.562 210.44 438.122 211.152 437.818 212.096C437.514 213.024 437.362 214.16 437.362 215.504C437.362 216.832 437.514 217.96 437.818 218.888C438.122 219.816 438.562 220.52 439.138 221C439.73 221.48 440.45 221.72 441.298 221.72ZM457.3 224.384C455.844 224.384 454.588 224.024 453.532 223.304C452.476 222.568 451.66 221.536 451.084 220.208C450.524 218.864 450.244 217.296 450.244 215.504C450.244 213.696 450.524 212.12 451.084 210.776C451.66 209.432 452.476 208.4 453.532 207.68C454.588 206.944 455.844 206.576 457.3 206.576C458.756 206.576 460.012 206.944 461.068 207.68C462.14 208.4 462.956 209.432 463.516 210.776C464.076 212.12 464.356 213.696 464.356 215.504C464.356 217.296 464.076 218.864 463.516 220.208C462.956 221.536 462.14 222.568 461.068 223.304C460.012 224.024 458.756 224.384 457.3 224.384ZM457.3 221.72C458.148 221.72 458.868 221.48 459.46 221C460.052 220.52 460.492 219.816 460.78 218.888C461.084 217.96 461.236 216.832 461.236 215.504C461.236 214.16 461.084 213.024 460.78 212.096C460.492 211.152 460.052 210.44 459.46 209.96C458.868 209.48 458.148 209.24 457.3 209.24C456.452 209.24 455.732 209.48 455.14 209.96C454.564 210.44 454.124 211.152 453.82 212.096C453.516 213.024 453.364 214.16 453.364 215.504C453.364 216.832 453.516 217.96 453.82 218.888C454.124 219.816 454.564 220.52 455.14 221C455.732 221.48 456.452 221.72 457.3 221.72Z" fill="#0E121B"/>
</g>
<defs>
<filter id="filter0_d_1323_60409" x="0" y="0" width="673" height="316" filterUnits="userSpaceOnUse" color-interpolation-filters="sRGB">
<feFlood flood-opacity="0" result="BackgroundImageFix"/>
<feColorMatrix in="SourceAlpha" type="matrix" values="0 0 0 0 0 0 0 0 0 0 0 0 0 0 0 0 0 0 127 0" result="hardAlpha"/>
<feMorphology radius="2" operator="dilate" in="SourceAlpha" result="effect1_dropShadow_1323_60409"/>
<feOffset/>
<feComposite in2="hardAlpha" operator="out"/>
<feColorMatrix type="matrix" values="0 0 0 0 0.0836413 0 0 0 0 0.335235 0 0 0 0 0.922288 0 0 0 0.04 0"/>
<feBlend mode="normal" in2="BackgroundImageFix" result="effect1_dropShadow_1323_60409"/>
<feBlend mode="normal" in="SourceGraphic" in2="effect1_dropShadow_1323_60409" result="shape"/>
</filter>
<filter id="filter1_dd_1323_60409" x="328.5" y="100" width="104.5" height="48" filterUnits="userSpaceOnUse" color-interpolation-filters="sRGB">
<feFlood flood-opacity="0" result="BackgroundImageFix"/>
<feColorMatrix in="SourceAlpha" type="matrix" values="0 0 0 0 0 0 0 0 0 0 0 0 0 0 0 0 0 0 127 0" result="hardAlpha"/>
<feOffset dy="2"/>
<feGaussianBlur stdDeviation="2"/>
<feColorMatrix type="matrix" values="0 0 0 0 0.054902 0 0 0 0 0.0705882 0 0 0 0 0.105882 0 0 0 0.03 0"/>
<feBlend mode="normal" in2="BackgroundImageFix" result="effect1_dropShadow_1323_60409"/>
<feColorMatrix in="SourceAlpha" type="matrix" values="0 0 0 0 0 0 0 0 0 0 0 0 0 0 0 0 0 0 127 0" result="hardAlpha"/>
<feOffset dy="6"/>
<feGaussianBlur stdDeviation="5"/>
<feColorMatrix type="matrix" values="0 0 0 0 0.054902 0 0 0 0 0.0705882 0 0 0 0 0.105882 0 0 0 0.06 0"/>
<feBlend mode="normal" in2="effect1_dropShadow_1323_60409" result="effect2_dropShadow_1323_60409"/>
<feBlend mode="normal" in="SourceGraphic" in2="effect2_dropShadow_1323_60409" result="shape"/>
</filter>
<clipPath id="clip0_1323_60409">
<rect width="20" height="20" fill="white" transform="translate(176.25 108)"/>
</clipPath>
<clipPath id="clip1_1323_60409">
<rect width="20" height="20" fill="white" transform="translate(264.75 108)"/>
</clipPath>
<clipPath id="clip2_1323_60409">
<rect width="20" height="20" fill="white" transform="translate(352.25 108)"/>
</clipPath>
<clipPath id="clip3_1323_60409">
<rect width="20" height="20" fill="white" transform="translate(442.25 108)"/>
</clipPath>
</defs>
</svg>
