<svg width="365" height="214" viewBox="0 0 365 214" fill="none" xmlns="http://www.w3.org/2000/svg">
<g clip-path="url(#clip0_1323_60529)">
<path d="M0 17.0912C0 7.65197 7.65197 0 17.0912 0H347.164C356.603 0 364.255 7.65197 364.255 17.0912V196.909C364.255 206.348 356.603 214 347.164 214H17.0912C7.652 214 0 206.348 0 196.909V17.0912Z" fill="#0E121B"/>
<path d="M413.387 -159.931H595.138C604.189 -159.931 609.783 -150.059 605.131 -142.294L480.79 65.2344C476.478 72.4308 468.705 76.835 460.315 76.835H278.564C269.513 76.8349 263.919 66.9629 268.571 59.1982L392.912 -148.33C397.224 -155.526 404.997 -159.931 413.387 -159.931Z" stroke="#222530" stroke-width="1.1383"/>
<path d="M456.642 -90.4951H638.393C647.444 -90.495 653.038 -80.6231 648.386 -72.8584L524.045 134.67C519.733 141.866 511.96 146.271 503.57 146.271H321.819C312.768 146.27 307.174 136.398 311.826 128.634L436.167 -78.8945C440.479 -86.0909 448.252 -90.4951 456.642 -90.4951Z" stroke="#222530" stroke-width="1.1383"/>
<path d="M87.0829 29.3906C89.738 32.668 91.184 36.7595 91.1777 40.9774C91.1777 45.3672 89.6441 49.3985 87.0829 52.5641L85.4888 51.2774C87.8491 48.364 89.1345 44.7269 89.1288 40.9774C89.1288 37.0752 87.7662 33.4926 85.4888 30.6774L87.0829 29.3906ZM83.0977 32.6085C85.0155 34.9756 86.0599 37.9308 86.0554 40.9774C86.0554 44.1471 84.9479 47.0586 83.0988 49.3462L81.5047 48.0585C83.1271 46.0555 84.0105 43.555 84.0064 40.9774C84.0064 38.2953 83.069 35.8315 81.5047 33.8962L83.0988 32.6085L83.0977 32.6085ZM79.1126 35.8274C80.2928 37.284 80.9357 39.1026 80.933 40.9774C80.933 42.9279 80.2518 44.7197 79.1136 46.1274L77.5195 44.8396C78.4044 43.7471 78.8863 42.3833 78.8841 40.9774C78.8841 39.5144 78.3729 38.1703 77.5195 37.1151L79.1136 35.8274L79.1126 35.8274ZM75.1274 39.0462C75.5702 39.5923 75.8115 40.2743 75.8107 40.9774C75.8107 41.7088 75.5546 42.3809 75.1284 42.9085L72.7373 40.9774L75.1284 39.0462L75.1274 39.0462Z" fill="#99A0AE"/>
<path d="M30.3603 165.689H33.9938L40.9875 185.086H37.9278L36.152 179.977H28.2021L26.4264 185.086H23.3666L30.3603 165.689ZM35.2232 177.327L32.1907 168.421L29.131 177.327H35.2232ZM46.3817 170.607L46.491 174.513L46.2725 174.322C46.4364 173.029 46.8097 172.091 47.3926 171.508C47.9754 170.907 48.8132 170.607 49.9059 170.607H51.2992V172.956H49.8786C49.1501 172.956 48.54 173.093 48.0482 173.366C47.5565 173.639 47.1922 174.049 46.9554 174.595C46.7369 175.124 46.6276 175.797 46.6276 176.617V185.086H43.7864V170.607H46.3817ZM58.6683 167.328V180.961C58.6683 181.544 58.8049 181.99 59.0781 182.299C59.3695 182.591 59.7975 182.736 60.3621 182.736H62.493V185.086H60.1162C58.7139 185.086 57.6484 184.731 56.9199 184.02C56.1914 183.31 55.8271 182.29 55.8271 180.961V167.328H58.6683ZM62.5203 170.607V172.956H53.6416V170.607H62.5203ZM68.5043 165.689V173.83L68.0945 173.639C68.3859 172.51 68.9505 171.672 69.7883 171.126C70.6261 170.561 71.6187 170.279 72.7661 170.279C74.3324 170.279 75.5344 170.789 76.3722 171.809C77.21 172.829 77.6289 174.149 77.6289 175.77V185.086H74.7877V176.754C74.7877 175.879 74.6966 175.16 74.5145 174.595C74.3324 174.013 74.0319 173.575 73.613 173.284C73.2123 172.974 72.675 172.82 72.0011 172.82C70.9084 172.82 70.0524 173.157 69.4331 173.83C68.8139 174.504 68.5043 175.479 68.5043 176.754V185.086H65.6631V165.689H68.5043ZM91.1457 185.086L91.1183 181.343L91.4462 181.616C91.2094 182.91 90.6721 183.866 89.8343 184.485C88.9966 185.104 87.9949 185.414 86.8292 185.414C85.2812 185.414 84.0882 184.904 83.2504 183.884C82.4126 182.864 81.9938 181.544 81.9938 179.923V170.607H84.8349V179.048C84.8349 179.941 84.926 180.678 85.1081 181.261C85.3085 181.826 85.5999 182.263 85.9823 182.573C86.383 182.864 86.9112 183.01 87.5669 183.01C88.605 183.01 89.4337 182.673 90.0529 181.999C90.6721 181.307 90.9818 180.323 90.9818 179.048V170.607H93.8229V185.086H91.1457ZM100.78 170.607L100.889 174.513L100.671 174.322C100.835 173.029 101.208 172.091 101.791 171.508C102.374 170.907 103.211 170.607 104.304 170.607H105.697V172.956H104.277C103.548 172.956 102.938 173.093 102.446 173.366C101.955 173.639 101.59 174.049 101.354 174.595C101.135 175.124 101.026 175.797 101.026 176.617V185.086H98.1846V170.607H100.78ZM129.07 168.367H123.115V185.086H120.219V168.367H114.291V165.689H129.07V168.367ZM130.236 174.923C130.527 173.484 131.21 172.355 132.285 171.536C133.359 170.698 134.725 170.279 136.383 170.279C138.35 170.279 139.852 170.807 140.89 171.863C141.929 172.902 142.448 174.413 142.448 176.398V181.862C142.448 182.19 142.52 182.427 142.666 182.573C142.812 182.718 143.03 182.791 143.322 182.791H143.923V185.086H142.967H142.857C142.347 185.086 141.874 185.031 141.437 184.922C141 184.813 140.626 184.594 140.317 184.266C140.007 183.939 139.843 183.474 139.825 182.873C139.479 183.602 138.905 184.212 138.104 184.703C137.303 185.177 136.337 185.414 135.208 185.414C133.696 185.414 132.449 185.04 131.465 184.294C130.482 183.547 129.99 182.545 129.99 181.289C129.99 180.36 130.2 179.613 130.618 179.048C131.056 178.484 131.657 178.047 132.421 177.737C133.205 177.427 134.215 177.154 135.454 176.918L139.606 176.098C139.588 174.932 139.315 174.067 138.787 173.503C138.259 172.938 137.457 172.656 136.383 172.656C135.545 172.656 134.853 172.865 134.307 173.284C133.76 173.703 133.378 174.313 133.159 175.114L130.236 174.923ZM132.941 181.234C132.941 181.799 133.177 182.263 133.651 182.627C134.143 182.991 134.844 183.174 135.754 183.174C136.501 183.174 137.166 183.001 137.749 182.655C138.35 182.29 138.814 181.753 139.142 181.043C139.488 180.332 139.661 179.467 139.661 178.447V178.311L136.547 178.857L136.028 178.939C135.281 179.085 134.707 179.221 134.307 179.349C133.906 179.458 133.578 179.668 133.323 179.977C133.068 180.287 132.941 180.706 132.941 181.234ZM147.571 170.607L151.696 182.081L155.685 170.607H158.554L152.762 186.78C152.47 187.618 152.042 188.228 151.478 188.61C150.913 188.993 150.185 189.184 149.292 189.184H147.325V186.862H148.91C149.274 186.862 149.566 186.78 149.784 186.616C150.021 186.47 150.203 186.233 150.33 185.906L150.822 184.676H149.921L144.675 170.607H147.571ZM164.311 165.689V181.78C164.311 182.09 164.384 182.327 164.53 182.491C164.694 182.655 164.93 182.736 165.24 182.736H166.442V185.086H164.639C163.692 185.086 162.927 184.795 162.344 184.212C161.761 183.629 161.47 182.864 161.47 181.917V165.689H164.311ZM175.318 185.414C173.934 185.414 172.723 185.104 171.685 184.485C170.665 183.866 169.872 182.991 169.308 181.862C168.743 180.715 168.461 179.376 168.461 177.846C168.461 176.316 168.743 174.987 169.308 173.858C169.872 172.71 170.665 171.827 171.685 171.208C172.723 170.589 173.934 170.279 175.318 170.279C176.684 170.279 177.886 170.589 178.924 171.208C179.962 171.827 180.764 172.71 181.328 173.858C181.893 174.987 182.175 176.316 182.175 177.846C182.175 179.376 181.893 180.715 181.328 181.862C180.764 182.991 179.962 183.866 178.924 184.485C177.886 185.104 176.684 185.414 175.318 185.414ZM175.318 182.928C176.557 182.928 177.513 182.482 178.187 181.589C178.879 180.697 179.225 179.449 179.225 177.846C179.225 176.244 178.879 174.996 178.187 174.104C177.513 173.211 176.557 172.765 175.318 172.765C174.061 172.765 173.096 173.211 172.422 174.104C171.748 174.996 171.411 176.244 171.411 177.846C171.411 179.449 171.748 180.697 172.422 181.589C173.096 182.482 174.061 182.928 175.318 182.928ZM188.02 170.607L188.129 174.513L187.911 174.322C188.074 173.029 188.448 172.091 189.031 171.508C189.613 170.907 190.451 170.607 191.544 170.607H192.937V172.956H191.517C190.788 172.956 190.178 173.093 189.686 173.366C189.195 173.639 188.83 174.049 188.593 174.595C188.375 175.124 188.266 175.797 188.266 176.617V185.086H185.424V170.607H188.02Z" fill="white"/>
<path d="M33.4954 138.798H32.0919C32.0089 138.394 31.8637 138.039 31.6562 137.734C31.4524 137.428 31.2034 137.171 30.9091 136.964C30.6186 136.753 30.2961 136.594 29.9414 136.489C29.5868 136.383 29.2171 136.33 28.8322 136.33C28.1305 136.33 27.4948 136.507 26.9251 136.862C26.3592 137.217 25.9083 137.739 25.5726 138.43C25.2406 139.12 25.0746 139.967 25.0746 140.971C25.0746 141.974 25.2406 142.821 25.5726 143.512C25.9083 144.202 26.3592 144.725 26.9251 145.079C27.4948 145.434 28.1305 145.611 28.8322 145.611C29.2171 145.611 29.5868 145.558 29.9414 145.453C30.2961 145.347 30.6186 145.19 30.9091 144.983C31.2034 144.772 31.4524 144.513 31.6562 144.208C31.8637 143.898 32.0089 143.544 32.0919 143.144H33.4954C33.3897 143.736 33.1973 144.266 32.9181 144.734C32.639 145.202 32.2919 145.6 31.8769 145.928C31.4619 146.253 30.9959 146.5 30.479 146.669C29.966 146.839 29.417 146.924 28.8322 146.924C27.8438 146.924 26.9647 146.683 26.1951 146.2C25.4254 145.717 24.8199 145.03 24.3785 144.14C23.9371 143.249 23.7164 142.193 23.7164 140.971C23.7164 139.748 23.9371 138.692 24.3785 137.802C24.8199 136.911 25.4254 136.225 26.1951 135.742C26.9647 135.259 27.8438 135.017 28.8322 135.017C29.417 135.017 29.966 135.102 30.479 135.272C30.9959 135.442 31.4619 135.691 31.8769 136.019C32.2919 136.343 32.639 136.739 32.9181 137.207C33.1973 137.671 33.3897 138.201 33.4954 138.798ZM38.0445 146.969C37.4937 146.969 36.9938 146.866 36.5448 146.658C36.0959 146.447 35.7393 146.143 35.4753 145.747C35.2112 145.347 35.0791 144.864 35.0791 144.298C35.0791 143.8 35.1772 143.397 35.3734 143.087C35.5696 142.774 35.8318 142.529 36.16 142.351C36.4882 142.174 36.8504 142.042 37.2466 141.955C37.6465 141.865 38.0483 141.793 38.452 141.74C38.9802 141.672 39.4084 141.621 39.7366 141.588C40.0686 141.55 40.3101 141.488 40.461 141.401C40.6156 141.314 40.693 141.163 40.693 140.948V140.903C40.693 140.344 40.5402 139.911 40.2346 139.601C39.9328 139.292 39.4744 139.137 38.8594 139.137C38.2218 139.137 37.7219 139.277 37.3597 139.556C36.9976 139.835 36.7429 140.133 36.5958 140.45L35.3281 139.997C35.5545 139.469 35.8563 139.058 36.2336 138.764C36.6146 138.466 37.0296 138.258 37.4786 138.141C37.9313 138.02 38.3765 137.96 38.8142 137.96C39.0933 137.96 39.414 137.994 39.7762 138.062C40.1422 138.126 40.4949 138.26 40.8345 138.464C41.1778 138.667 41.4626 138.975 41.689 139.386C41.9154 139.797 42.0285 140.348 42.0285 141.039V146.766H40.693V145.589H40.6251C40.5345 145.777 40.3836 145.979 40.1723 146.194C39.9611 146.409 39.68 146.592 39.3291 146.743C38.9783 146.894 38.5501 146.969 38.0445 146.969ZM38.2482 145.77C38.7764 145.77 39.2216 145.666 39.5838 145.458C39.9498 145.251 40.2252 144.983 40.41 144.655C40.5987 144.327 40.693 143.981 40.693 143.619V142.397C40.6364 142.465 40.5119 142.527 40.3195 142.584C40.1308 142.636 39.912 142.683 39.663 142.725C39.4178 142.763 39.1782 142.797 38.9443 142.827C38.7142 142.853 38.5274 142.876 38.3841 142.895C38.037 142.94 37.7125 143.014 37.4107 143.115C37.1126 143.214 36.8712 143.363 36.6863 143.563C36.5052 143.759 36.4147 144.027 36.4147 144.366C36.4147 144.83 36.5863 145.181 36.9297 145.419C37.2767 145.653 37.7163 145.77 38.2482 145.77ZM44.3706 146.766V138.073H45.6609V139.386H45.7514C45.9099 138.956 46.1966 138.607 46.6116 138.339C47.0266 138.071 47.4945 137.937 48.0151 137.937C48.1132 137.937 48.2358 137.939 48.3829 137.943C48.5301 137.947 48.6414 137.952 48.7168 137.96V139.318C48.6716 139.307 48.5678 139.29 48.4056 139.267C48.2471 139.241 48.0792 139.228 47.9019 139.228C47.4794 139.228 47.1021 139.316 46.7701 139.494C46.4419 139.667 46.1815 139.909 45.9891 140.218C45.8005 140.524 45.7062 140.873 45.7062 141.265V146.766H44.3706ZM53.2221 146.947C52.4977 146.947 51.8583 146.764 51.3037 146.398C50.7491 146.028 50.3152 145.507 50.0021 144.836C49.6889 144.161 49.5323 143.363 49.5323 142.442C49.5323 141.529 49.6889 140.737 50.0021 140.065C50.3152 139.394 50.7509 138.875 51.3093 138.509C51.8677 138.143 52.5128 137.96 53.2447 137.96C53.8107 137.96 54.2577 138.054 54.586 138.243C54.918 138.428 55.1707 138.639 55.3443 138.877C55.5216 139.111 55.6593 139.303 55.7574 139.454H55.8706V135.176H57.2062V146.766H55.9159V145.43H55.7574C55.6593 145.589 55.5197 145.788 55.3386 146.03C55.1575 146.268 54.8991 146.481 54.5633 146.669C54.2276 146.854 53.7805 146.947 53.2221 146.947ZM53.4032 145.747C53.9389 145.747 54.3917 145.607 54.7614 145.328C55.1311 145.045 55.4122 144.655 55.6046 144.157C55.797 143.655 55.8932 143.076 55.8932 142.419C55.8932 141.77 55.7989 141.203 55.6103 140.716C55.4216 140.226 55.1424 139.844 54.7727 139.573C54.403 139.297 53.9465 139.16 53.4032 139.16C52.8373 139.16 52.3657 139.305 51.9884 139.595C51.6149 139.882 51.3338 140.273 51.1452 140.767C50.9603 141.257 50.8679 141.808 50.8679 142.419C50.8679 143.038 50.9622 143.6 51.1509 144.106C51.3433 144.608 51.6262 145.008 51.9997 145.306C52.377 145.6 52.8448 145.747 53.4032 145.747ZM61.0776 141.537V146.766H59.742V135.176H61.0776V139.431H61.1908C61.3945 138.982 61.7001 138.626 62.1076 138.362C62.5188 138.094 63.0658 137.96 63.7487 137.96C64.341 137.96 64.8598 138.079 65.305 138.317C65.7502 138.55 66.0954 138.911 66.3406 139.397C66.5896 139.88 66.7141 140.495 66.7141 141.242V146.766H65.3786V141.333C65.3786 140.642 65.1993 140.109 64.8409 139.731C64.4863 139.35 63.994 139.16 63.3639 139.16C62.9263 139.16 62.5339 139.252 62.1868 139.437C61.8435 139.622 61.5718 139.892 61.3719 140.246C61.1757 140.601 61.0776 141.031 61.0776 141.537ZM72.5931 146.947C71.8084 146.947 71.1199 146.76 70.5276 146.386C69.939 146.013 69.4787 145.49 69.1467 144.819C68.8185 144.147 68.6544 143.363 68.6544 142.465C68.6544 141.559 68.8185 140.769 69.1467 140.093C69.4787 139.418 69.939 138.894 70.5276 138.52C71.1199 138.147 71.8084 137.96 72.5931 137.96C73.3779 137.96 74.0645 138.147 74.6531 138.52C75.2454 138.894 75.7057 139.418 76.0339 140.093C76.3659 140.769 76.5319 141.559 76.5319 142.465C76.5319 143.363 76.3659 144.147 76.0339 144.819C75.7057 145.49 75.2454 146.013 74.6531 146.386C74.0645 146.76 73.3779 146.947 72.5931 146.947ZM72.5931 145.747C73.1892 145.747 73.6797 145.594 74.0645 145.289C74.4493 144.983 74.7342 144.581 74.9191 144.083C75.1039 143.585 75.1964 143.046 75.1964 142.465C75.1964 141.884 75.1039 141.342 74.9191 140.84C74.7342 140.339 74.4493 139.933 74.0645 139.624C73.6797 139.314 73.1892 139.16 72.5931 139.16C71.997 139.16 71.5066 139.314 71.1218 139.624C70.7369 139.933 70.4521 140.339 70.2672 140.84C70.0824 141.342 69.9899 141.884 69.9899 142.465C69.9899 143.046 70.0824 143.585 70.2672 144.083C70.4521 144.581 70.7369 144.983 71.1218 145.289C71.5066 145.594 71.997 145.747 72.5931 145.747ZM79.8106 135.176V146.766H78.475V135.176H79.8106ZM85.4434 146.947C84.7191 146.947 84.0796 146.764 83.525 146.398C82.9704 146.028 82.5365 145.507 82.2234 144.836C81.9102 144.161 81.7537 143.363 81.7537 142.442C81.7537 141.529 81.9102 140.737 82.2234 140.065C82.5365 139.394 82.9723 138.875 83.5306 138.509C84.089 138.143 84.7341 137.96 85.4661 137.96C86.032 137.96 86.479 138.054 86.8073 138.243C87.1393 138.428 87.3921 138.639 87.5656 138.877C87.7429 139.111 87.8806 139.303 87.9787 139.454H88.0919V135.176H89.4275V146.766H88.1372V145.43H87.9787C87.8806 145.589 87.741 145.788 87.5599 146.03C87.3789 146.268 87.1204 146.481 86.7846 146.669C86.4489 146.854 86.0018 146.947 85.4434 146.947ZM85.6245 145.747C86.1602 145.747 86.613 145.607 86.9827 145.328C87.3524 145.045 87.6335 144.655 87.8259 144.157C88.0183 143.655 88.1145 143.076 88.1145 142.419C88.1145 141.77 88.0202 141.203 87.8316 140.716C87.6429 140.226 87.3638 139.844 86.994 139.573C86.6243 139.297 86.1678 139.16 85.6245 139.16C85.0586 139.16 84.587 139.305 84.2097 139.595C83.8362 139.882 83.5552 140.273 83.3665 140.767C83.1816 141.257 83.0892 141.808 83.0892 142.419C83.0892 143.038 83.1835 143.6 83.3722 144.106C83.5646 144.608 83.8475 145.008 84.221 145.306C84.5983 145.6 85.0661 145.747 85.6245 145.747ZM95.6079 146.947C94.7703 146.947 94.0478 146.762 93.4404 146.392C92.8368 146.019 92.3708 145.498 92.0426 144.83C91.7181 144.159 91.5559 143.378 91.5559 142.487C91.5559 141.597 91.7181 140.812 92.0426 140.133C92.3708 139.45 92.8273 138.918 93.4121 138.537C94.0007 138.152 94.6873 137.96 95.472 137.96C95.9248 137.96 96.3718 138.035 96.8133 138.186C97.2547 138.337 97.6565 138.582 98.0187 138.922C98.3808 139.258 98.6695 139.703 98.8845 140.258C99.0995 140.812 99.2071 141.495 99.2071 142.306V142.872H92.5066V141.718H97.8489C97.8489 141.227 97.7508 140.79 97.5546 140.405C97.3622 140.02 97.0868 139.716 96.7284 139.494C96.3737 139.271 95.9549 139.16 95.472 139.16C94.9401 139.16 94.4798 139.292 94.0912 139.556C93.7064 139.816 93.4102 140.156 93.2027 140.575C92.9952 140.993 92.8915 141.442 92.8915 141.921V142.691C92.8915 143.347 93.0046 143.904 93.231 144.36C93.4611 144.813 93.7799 145.158 94.1874 145.396C94.5949 145.63 95.0683 145.747 95.6079 145.747C95.9587 145.747 96.2756 145.698 96.5586 145.6C96.8453 145.498 97.0924 145.347 97.2999 145.147C97.5074 144.943 97.6678 144.691 97.781 144.389L99.0713 144.751C98.9354 145.189 98.7072 145.573 98.3865 145.905C98.0658 146.234 97.6697 146.49 97.1981 146.675C96.7265 146.856 96.1964 146.947 95.6079 146.947ZM101.143 146.766V138.073H102.433V139.386H102.524C102.682 138.956 102.969 138.607 103.384 138.339C103.799 138.071 104.267 137.937 104.788 137.937C104.886 137.937 105.008 137.939 105.155 137.943C105.303 137.947 105.414 137.952 105.489 137.96V139.318C105.444 139.307 105.34 139.29 105.178 139.267C105.02 139.241 104.852 139.228 104.674 139.228C104.252 139.228 103.875 139.316 103.543 139.494C103.214 139.667 102.954 139.909 102.762 140.218C102.573 140.524 102.479 140.873 102.479 141.265V146.766H101.143ZM120.735 135.176V146.766H119.377L113.061 137.666H112.948V146.766H111.544V135.176H112.903L119.241 144.298H119.354V135.176H120.735ZM125.824 146.969C125.274 146.969 124.774 146.866 124.325 146.658C123.876 146.447 123.519 146.143 123.255 145.747C122.991 145.347 122.859 144.864 122.859 144.298C122.859 143.8 122.957 143.397 123.153 143.087C123.349 142.774 123.612 142.529 123.94 142.351C124.268 142.174 124.63 142.042 125.026 141.955C125.426 141.865 125.828 141.793 126.232 141.74C126.76 141.672 127.188 141.621 127.516 141.588C127.849 141.55 128.09 141.488 128.241 141.401C128.396 141.314 128.473 141.163 128.473 140.948V140.903C128.473 140.344 128.32 139.911 128.015 139.601C127.713 139.292 127.254 139.137 126.639 139.137C126.002 139.137 125.502 139.277 125.14 139.556C124.777 139.835 124.523 140.133 124.376 140.45L123.108 139.997C123.334 139.469 123.636 139.058 124.013 138.764C124.395 138.466 124.81 138.258 125.258 138.141C125.711 138.02 126.156 137.96 126.594 137.96C126.873 137.96 127.194 137.994 127.556 138.062C127.922 138.126 128.275 138.26 128.614 138.464C128.958 138.667 129.243 138.975 129.469 139.386C129.695 139.797 129.808 140.348 129.808 141.039V146.766H128.473V145.589H128.405C128.314 145.777 128.164 145.979 127.952 146.194C127.741 146.409 127.46 146.592 127.109 146.743C126.758 146.894 126.33 146.969 125.824 146.969ZM126.028 145.77C126.556 145.77 127.002 145.666 127.364 145.458C127.73 145.251 128.005 144.983 128.19 144.655C128.379 144.327 128.473 143.981 128.473 143.619V142.397C128.416 142.465 128.292 142.527 128.099 142.584C127.911 142.636 127.692 142.683 127.443 142.725C127.198 142.763 126.958 142.797 126.724 142.827C126.494 142.853 126.307 142.876 126.164 142.895C125.817 142.94 125.492 143.014 125.191 143.115C124.893 143.214 124.651 143.363 124.466 143.563C124.285 143.759 124.195 144.027 124.195 144.366C124.195 144.83 124.366 145.181 124.71 145.419C125.057 145.653 125.496 145.77 126.028 145.77ZM132.151 146.766V138.073H133.441V139.431H133.554C133.735 138.967 134.027 138.607 134.431 138.35C134.835 138.09 135.32 137.96 135.886 137.96C136.459 137.96 136.936 138.09 137.317 138.35C137.702 138.607 138.002 138.967 138.217 139.431H138.308C138.53 138.982 138.864 138.626 139.309 138.362C139.755 138.094 140.288 137.96 140.911 137.96C141.688 137.96 142.324 138.203 142.818 138.69C143.312 139.173 143.559 139.926 143.559 140.948V146.766H142.224V140.948C142.224 140.307 142.048 139.848 141.698 139.573C141.347 139.297 140.934 139.16 140.458 139.16C139.847 139.16 139.373 139.345 139.038 139.714C138.702 140.08 138.534 140.544 138.534 141.106V146.766H137.176V140.812C137.176 140.318 137.015 139.92 136.695 139.618C136.374 139.313 135.961 139.16 135.455 139.16C135.108 139.16 134.784 139.252 134.482 139.437C134.184 139.622 133.943 139.878 133.758 140.207C133.577 140.531 133.486 140.907 133.486 141.333V146.766H132.151ZM149.55 146.947C148.713 146.947 147.99 146.762 147.383 146.392C146.779 146.019 146.313 145.498 145.985 144.83C145.66 144.159 145.498 143.378 145.498 142.487C145.498 141.597 145.66 140.812 145.985 140.133C146.313 139.45 146.77 138.918 147.354 138.537C147.943 138.152 148.63 137.96 149.414 137.96C149.867 137.96 150.314 138.035 150.756 138.186C151.197 138.337 151.599 138.582 151.961 138.922C152.323 139.258 152.612 139.703 152.827 140.258C153.042 140.812 153.149 141.495 153.149 142.306V142.872H146.449V141.718H151.791C151.791 141.227 151.693 140.79 151.497 140.405C151.304 140.02 151.029 139.716 150.671 139.494C150.316 139.271 149.897 139.16 149.414 139.16C148.882 139.16 148.422 139.292 148.034 139.556C147.649 139.816 147.353 140.156 147.145 140.575C146.938 140.993 146.834 141.442 146.834 141.921V142.691C146.834 143.347 146.947 143.904 147.173 144.36C147.403 144.813 147.722 145.158 148.13 145.396C148.537 145.63 149.011 145.747 149.55 145.747C149.901 145.747 150.218 145.698 150.501 145.6C150.788 145.498 151.035 145.347 151.242 145.147C151.45 144.943 151.61 144.691 151.723 144.389L153.014 144.751C152.878 145.189 152.649 145.573 152.329 145.905C152.008 146.234 151.612 146.49 151.14 146.675C150.669 146.856 150.139 146.947 149.55 146.947Z" fill="#99A0AE"/>
<circle cx="316.647" cy="40.9777" r="9.5617" fill="#E80B26"/>
<circle cx="329.395" cy="40.9777" r="9.5617" fill="#F59D31"/>
<path d="M323.02 48.1074C324.976 46.3566 326.207 43.8123 326.207 40.9804C326.207 38.1486 324.976 35.6043 323.02 33.8535C321.064 35.6043 319.833 38.1486 319.833 40.9804C319.833 43.8123 321.064 46.3566 323.02 48.1074Z" fill="#FC6020"/>
<g filter="url(#filter0_ii_1323_60529)">
<path d="M22.7656 30.7333C22.7656 28.8473 24.2945 27.3184 26.1805 27.3184H55.7763C57.6623 27.3184 59.1912 28.8473 59.1912 30.7333V51.2226C59.1912 53.1086 57.6623 54.6375 55.7763 54.6375H26.1805C24.2945 54.6375 22.7656 53.1086 22.7656 51.2226V30.7333Z" fill="#FFD5C0"/>
<path d="M37.5635 37.563H44.3933V44.3928H37.5635V37.563Z" fill="#FFD5C0"/>
</g>
<path d="M37.5635 37.563H44.3933M37.5635 37.563V44.3928M37.5635 37.563L35.3102 34.789C34.6617 33.9908 33.688 33.5273 32.6596 33.5273H22.7656M44.3933 37.563V44.3928M44.3933 37.563L46.9249 34.6862C47.5732 33.9495 48.5072 33.5273 49.4885 33.5273H59.1912M44.3933 44.3928H37.5635M44.3933 44.3928L46.9249 47.2697C47.5732 48.0064 48.5072 48.4286 49.4885 48.4286H59.1912M37.5635 44.3928L35.3102 47.1668C34.6617 47.9651 33.688 48.4286 32.6596 48.4286H22.7656M41.263 27.3184V34.1481M41.263 47.8077V54.6375M59.1912 41.2884H47.8082M34.1486 41.2884H22.7656M26.1805 54.6375H55.7763C57.6623 54.6375 59.1912 53.1086 59.1912 51.2226V30.7333C59.1912 28.8473 57.6623 27.3184 55.7763 27.3184H26.1805C24.2945 27.3184 22.7656 28.8473 22.7656 30.7333V51.2226C22.7656 53.1086 24.2945 54.6375 26.1805 54.6375Z" stroke="#0E121B" stroke-width="1.1383"/>
</g>
<defs>
<filter id="filter0_ii_1323_60529" x="22.1973" y="24.4734" width="37.5625" height="33.0102" filterUnits="userSpaceOnUse" color-interpolation-filters="sRGB">
<feFlood flood-opacity="0" result="BackgroundImageFix"/>
<feBlend mode="normal" in="SourceGraphic" in2="BackgroundImageFix" result="shape"/>
<feColorMatrix in="SourceAlpha" type="matrix" values="0 0 0 0 0 0 0 0 0 0 0 0 0 0 0 0 0 0 127 0" result="hardAlpha"/>
<feOffset dy="2.2766"/>
<feGaussianBlur stdDeviation="3.41489"/>
<feComposite in2="hardAlpha" operator="arithmetic" k2="-1" k3="1"/>
<feColorMatrix type="matrix" values="0 0 0 0 0 0 0 0 0 0 0 0 0 0 0 0 0 0 1 0"/>
<feBlend mode="overlay" in2="shape" result="effect1_innerShadow_1323_60529"/>
<feColorMatrix in="SourceAlpha" type="matrix" values="0 0 0 0 0 0 0 0 0 0 0 0 0 0 0 0 0 0 127 0" result="hardAlpha"/>
<feOffset dy="-2.2766"/>
<feGaussianBlur stdDeviation="1.1383"/>
<feComposite in2="hardAlpha" operator="arithmetic" k2="-1" k3="1"/>
<feColorMatrix type="matrix" values="0 0 0 0 0 0 0 0 0 0 0 0 0 0 0 0 0 0 0.48 0"/>
<feBlend mode="overlay" in2="effect1_innerShadow_1323_60529" result="effect2_innerShadow_1323_60529"/>
</filter>
<clipPath id="clip0_1323_60529">
<path d="M0 17.0912C0 7.65197 7.65197 0 17.0912 0H347.164C356.603 0 364.255 7.65197 364.255 17.0912V196.909C364.255 206.348 356.603 214 347.164 214H17.0912C7.652 214 0 206.348 0 196.909V17.0912Z" fill="white"/>
</clipPath>
</defs>
</svg>
