<svg width="24" height="24" viewBox="0 0 24 24" fill="none" xmlns="http://www.w3.org/2000/svg">
<path d="M9.49967 2C10.1344 1.9999 10.7454 2.24123 11.2087 2.67504C11.6721 3.10885 11.953 3.70265 11.9947 4.336L11.9997 4.5V9.105L17.4417 9.71C18.3852 9.81486 19.2606 10.2519 19.9115 10.9429C20.5624 11.6339 20.9464 12.5339 20.9947 13.482L20.9997 13.685V14C20.9996 16.0784 20.1907 18.0753 18.7442 19.5677C17.2977 21.0602 15.3271 21.931 13.2497 21.996L12.9997 22H12.3257C10.8881 22 9.47718 21.6126 8.24116 20.8786C7.00513 20.1446 5.98971 19.0912 5.30167 17.829L5.17067 17.578L2.32867 11.894C1.96867 11.174 2.23567 10.211 3.07567 9.866C4.11867 9.439 5.10967 9.359 6.13067 9.878C6.35267 9.991 6.57067 10.13 6.78467 10.292L6.99967 10.462V4.5C6.99967 3.83696 7.26306 3.20107 7.73191 2.73223C8.20075 2.26339 8.83663 2 9.49967 2ZM4.48767 3.45C4.71576 3.31434 4.98839 3.27485 5.2456 3.3402C5.50281 3.40556 5.72351 3.57041 5.85917 3.7985C5.99483 4.02659 6.03433 4.29922 5.96897 4.55643C5.90361 4.81363 5.73876 5.03434 5.51067 5.17C4.91067 5.527 4.47167 5.899 4.18867 6.174C4.09755 6.26195 4.00982 6.35335 3.92567 6.448L3.80467 6.593C3.64789 6.80578 3.41325 6.94784 3.15203 6.98813C2.89082 7.02842 2.62428 6.96366 2.41067 6.808C2.19846 6.64997 2.05674 6.41498 2.01597 6.15355C1.9752 5.89212 2.03865 5.62514 2.19267 5.41C2.37377 5.17075 2.57447 4.94697 2.79267 4.741C3.30588 4.24689 3.87468 3.813 4.48767 3.45ZM14.3977 2.88C15.3208 3.27821 16.1753 3.81953 16.9297 4.484C17.2447 4.764 17.5577 5.068 17.8077 5.411C17.9639 5.6253 18.0285 5.89287 17.9875 6.15485C17.9464 6.41683 17.8029 6.65177 17.5887 6.808C17.1787 7.108 16.6177 7.038 16.2747 6.686L16.1277 6.511L16.0307 6.401L15.8907 6.254C15.8626 6.22537 15.8343 6.19704 15.8057 6.169L15.6017 5.979C15.0048 5.45549 14.3292 5.02927 13.5997 4.716C13.4792 4.6636 13.3703 4.588 13.2791 4.49351C13.1879 4.39901 13.1162 4.28748 13.0681 4.16528C12.971 3.91848 12.9759 3.6432 13.0817 3.4C13.1875 3.1568 13.3856 2.96559 13.6324 2.86845C13.8792 2.7713 14.1545 2.77618 14.3977 2.882V2.88Z" fill="#525866"/>
</svg>
