<svg width="24" height="24" viewBox="0 0 24 24" fill="none" xmlns="http://www.w3.org/2000/svg">
<g clip-path="url(#clip0_1323_65461)">
<path d="M12 5.5C13.4587 5.5 14.8576 6.07946 15.8891 7.11091C16.9205 8.14236 17.5 9.54131 17.5 11L17.499 12.851L17.493 13.332L17.48 13.828L17.47 14.081L17.441 14.595L17.398 15.119C17.167 17.495 16.413 20.109 13.96 22.152C13.8095 22.2837 13.6341 22.384 13.4443 22.4469C13.2544 22.5098 13.0539 22.5341 12.8545 22.5184C12.6551 22.5027 12.4608 22.4473 12.2832 22.3554C12.1055 22.2635 11.9481 22.137 11.82 21.9833C11.692 21.8297 11.5959 21.652 11.5376 21.4606C11.4792 21.2693 11.4597 21.0683 11.4802 20.8693C11.5007 20.6704 11.5608 20.4775 11.6569 20.3021C11.7531 20.1267 11.8833 19.9723 12.04 19.848C13.89 18.305 14.35 16.303 14.463 14.041L14.485 13.47L14.496 12.889L14.5 12.299V11C14.5 10.337 14.2366 9.70107 13.7678 9.23223C13.2989 8.76339 12.663 8.5 12 8.5C11.337 8.5 10.7011 8.76339 10.2322 9.23223C9.76339 9.70107 9.5 10.337 9.5 11V12C9.5 13.036 9.17 14.276 8.574 15.393C7.973 16.519 7.025 17.664 5.671 18.342C5.32611 18.5164 4.92722 18.5509 4.55749 18.4384C4.18776 18.3259 3.87572 18.075 3.68643 17.7381C3.49714 17.4011 3.4452 17.0041 3.54143 16.6298C3.63767 16.2556 3.87466 15.9328 4.203 15.729L4.329 15.659C4.975 15.335 5.527 14.731 5.926 13.982C6.331 13.224 6.5 12.465 6.5 12V11C6.5 10.2777 6.64226 9.56253 6.91866 8.89524C7.19506 8.22795 7.60019 7.62163 8.11091 7.11091C8.62163 6.60019 9.22795 6.19506 9.89524 5.91866C10.5625 5.64226 11.2777 5.5 12 5.5ZM12 1.5C14.5196 1.5 16.9359 2.50089 18.7175 4.28249C20.4991 6.06408 21.5 8.48044 21.5 11V14.001L21.492 14.407L21.464 15.001L21.434 15.427C21.429 15.503 21.422 15.581 21.415 15.661L21.365 16.163C21.346 16.337 21.324 16.518 21.299 16.703C21.109 18.093 20.702 20.064 19.7 21.4C19.4686 21.7076 19.1278 21.9145 18.7481 21.9778C18.3685 22.0412 17.979 21.9561 17.6603 21.7403C17.3415 21.5245 17.118 21.1944 17.0359 20.8183C16.9537 20.4423 17.0193 20.0491 17.219 19.72L17.3 19.6C17.798 18.935 18.14 17.658 18.326 16.297C18.376 15.934 18.411 15.589 18.436 15.28L18.468 14.848C18.4846 14.5673 18.4952 14.2862 18.5 14.005V11C18.5 9.27609 17.8152 7.62279 16.5962 6.40381C15.3772 5.18482 13.7239 4.5 12 4.5C10.2761 4.5 8.62279 5.18482 7.40381 6.40381C6.18482 7.62279 5.5 9.27609 5.5 11V13C5.5 13.3978 5.34196 13.7794 5.06066 14.0607C4.77936 14.342 4.39782 14.5 4 14.5C3.60218 14.5 3.22064 14.342 2.93934 14.0607C2.65804 13.7794 2.5 13.3978 2.5 13V11C2.5 8.48044 3.50089 6.06408 5.28249 4.28249C7.06408 2.50089 9.48044 1.5 12 1.5ZM12 10C12.3978 10 12.7794 10.158 13.0607 10.4393C13.342 10.7206 13.5 11.1022 13.5 11.5L13.491 12.097C13.454 13.343 13.288 14.879 12.798 16.349C12.225 18.069 11.152 19.851 9.171 20.842C8.82611 21.0164 8.42722 21.0509 8.05749 20.9384C7.68776 20.8259 7.37572 20.575 7.18643 20.2381C6.99714 19.9011 6.9452 19.5041 7.04143 19.1298C7.13767 18.7556 7.37466 18.4328 7.703 18.229L7.829 18.159C8.848 17.649 9.525 16.681 9.952 15.401C10.38 14.116 10.5 12.671 10.5 11.5C10.5 11.1022 10.658 10.7206 10.9393 10.4393C11.2206 10.158 11.6022 10 12 10Z" fill="#335CFF"/>
</g>
<defs>
<clipPath id="clip0_1323_65461">
<rect width="24" height="24" fill="white"/>
</clipPath>
</defs>
</svg>
