<svg width="96" height="32" viewBox="0 0 96 32" fill="none" xmlns="http://www.w3.org/2000/svg">
<path d="M59.5573 21.4743C60.2454 21.4743 60.7394 21.5626 61.0394 21.739C61.357 21.8978 61.5687 22.136 61.6746 22.4536C61.7981 22.7712 61.8598 23.177 61.8598 23.671C61.8598 24.165 61.8157 24.562 61.7275 24.862C61.6393 25.1619 61.5334 25.3913 61.4099 25.5501C61.2864 25.7089 61.1011 25.8236 60.8541 25.8941C60.5718 26 60.1219 26.0529 59.5044 26.0529H48.4946C48.0887 26.0529 47.7006 25.9471 47.3301 25.7353C46.5537 25.2942 46.1656 24.5973 46.1656 23.6445C46.1656 23.1858 46.2714 22.8153 46.4831 22.533L54.6876 11.1791H48.6004C48.177 11.1791 47.8594 11.1703 47.6476 11.1526C47.4536 11.1174 47.2154 11.038 46.9331 10.9144C46.4214 10.6674 46.1656 10.0058 46.1656 8.92951C46.1656 7.8003 46.4037 7.11218 46.8801 6.86517C47.1448 6.72402 47.3742 6.64462 47.5682 6.62698C47.78 6.59169 48.0976 6.57405 48.521 6.57405H59.1603C59.5661 6.57405 59.9543 6.67991 60.3248 6.89163C60.6953 7.10336 60.9776 7.38566 61.1717 7.73854C61.3834 8.09142 61.4893 8.50605 61.4893 8.98244C61.4893 9.45883 61.3834 9.83817 61.1717 10.1205L52.9673 21.4743H59.5573ZM68.2534 21.3155H76.4049C76.8107 21.3155 77.1106 21.3332 77.3047 21.3685C77.5165 21.3861 77.7546 21.4655 78.0193 21.6067C78.4957 21.8537 78.7339 22.5418 78.7339 23.671C78.7339 24.9061 78.4075 25.6295 77.7546 25.8412C77.4547 25.9471 76.996 26 76.3784 26H65.8979C64.6629 26 63.9395 25.6648 63.7277 24.9943C63.6219 24.712 63.5689 24.2621 63.5689 23.6445V8.92951C63.5689 8.02967 63.7366 7.42095 64.0718 7.10336C64.407 6.76813 65.0422 6.60051 65.9773 6.60051H76.4049C76.8107 6.60051 77.1106 6.61815 77.3047 6.65344C77.5165 6.67109 77.7546 6.75048 78.0193 6.89163C78.4957 7.13865 78.7339 7.82676 78.7339 8.95597C78.7339 10.191 78.4075 10.9144 77.7546 11.1262C77.4547 11.232 76.996 11.285 76.3784 11.285H68.2534V13.958H73.4936C73.8994 13.958 74.1994 13.9757 74.3935 14.011C74.6052 14.0286 74.8434 14.108 75.1081 14.2491C75.5844 14.4962 75.8226 15.1843 75.8226 16.3135C75.8226 17.5486 75.4874 18.272 74.8169 18.4837C74.517 18.5896 74.0582 18.6425 73.4407 18.6425H68.2534V21.3155ZM85.1306 22.0831H92.3293C92.9115 22.0831 93.335 22.1536 93.5996 22.2948C93.8643 22.4183 94.0407 22.6212 94.129 22.9035C94.2172 23.1858 94.2613 23.5651 94.2613 24.0415C94.2613 24.5003 94.2172 24.8708 94.129 25.1531C94.0407 25.4354 93.8908 25.6295 93.679 25.7353C93.3438 25.9118 92.8851 26 92.3028 26H82.7751C81.54 26 80.8166 25.6648 80.6049 24.9943C80.499 24.712 80.4461 24.2621 80.4461 23.6445V8.92951C80.4461 8.5237 80.4549 8.22375 80.4726 8.02967C80.5079 7.81794 80.5961 7.57975 80.7372 7.31509C80.9842 6.8387 81.6724 6.60051 82.8016 6.60051C84.0366 6.60051 84.7689 6.92692 84.9982 7.57975C85.0865 7.8797 85.1306 8.33844 85.1306 8.95597V22.0831Z" fill="#335CFF"/>
<path d="M41.8452 5.76416C42.6162 5.76416 43.1841 5.82849 43.5498 5.95667C43.9155 6.08534 44.1771 6.29768 44.3353 6.59419C44.5525 7.04887 44.6613 7.66173 44.6613 8.43227V19.9062C44.6613 21.9813 43.9101 23.8145 42.4082 25.4059C40.9058 26.9968 38.9889 27.7925 36.6565 27.7925C35.352 27.7925 34.1959 27.5057 33.1874 26.933C32.278 26.4386 31.6458 25.9941 31.2898 25.5989L31.0528 25.3614C30.3413 24.6494 28.375 21.6596 28.375 21.1358C28.375 20.6119 28.7208 19.9943 29.4125 19.2827C30.1042 18.5712 31.0688 17.9811 31.6023 17.9811C32.1358 17.9811 34.0174 20.8843 34.6699 21.5363C35.322 22.1883 36.0287 22.5148 36.7895 22.5148C37.5504 22.5148 38.1782 22.258 38.6721 21.7438C39.166 21.2296 39.4131 20.5481 39.4131 19.6982V8.60979C39.4131 7.42374 39.611 6.66288 40.0062 6.32719C40.4608 5.95135 41.0732 5.76367 41.8442 5.76367L41.8452 5.76416Z" fill="#335CFF"/>
<path d="M20.0676 7.52934C20.7405 7.91775 21.2019 8.2636 21.452 8.56736C21.7021 8.87113 21.8167 9.20053 21.7959 9.55557C21.7417 10.0876 21.5081 10.7116 21.0945 11.428L14.9394 22.0893C13.8259 24.0178 12.1871 25.3427 10.0225 26.0644C7.85796 26.7861 5.75772 26.5592 3.72229 25.3838C2.58365 24.7265 1.72846 23.8776 1.15624 22.8371C0.627552 21.92 0.314596 21.1877 0.21592 20.6411L0.136109 20.3011C-0.0752699 19.2732 -0.0404432 18.5157 0.240589 18.0286C0.521621 17.542 1.15479 17.1425 2.1401 16.8295C3.1254 16.517 3.85096 16.4953 4.31676 16.7642C4.78257 17.0332 5.12503 17.6349 5.34464 18.5694C5.56424 19.5039 6.00586 20.1632 6.66998 20.5468C7.33411 20.9304 8.01952 21.0078 8.7267 20.7794C9.43387 20.5507 10.0148 20.0418 10.4709 19.2519L16.4195 8.94901C17.0556 7.84713 17.6365 7.2396 18.1618 7.12641C18.7602 7.00645 19.3958 7.14092 20.0681 7.52934H20.0676Z" fill="#335CFF"/>
<path d="M18.4357 26.0289C17.7629 25.6405 17.3015 25.2946 17.0514 24.9909C16.8013 24.6871 16.6867 24.3577 16.7075 24.0027C16.7616 23.4706 16.9953 22.8466 17.4088 22.1303L23.564 11.4689C24.6775 9.5404 26.3163 8.21553 28.4808 7.49385C30.6454 6.77216 32.7457 6.99902 34.7811 8.17442C35.9197 8.83177 36.7749 9.68067 37.3471 10.7211C37.8758 11.6382 38.1888 12.3706 38.2875 12.9167L38.3673 13.2567C38.5786 14.2846 38.5438 15.042 38.2628 15.5291C37.9818 16.0157 37.3486 16.4153 36.3633 16.7278C35.378 17.0402 34.6524 17.062 34.1866 16.7931C33.7208 16.5241 33.3783 15.9224 33.1592 14.9879C32.9396 14.0534 32.498 13.3941 31.8339 13.0105C31.1697 12.6269 30.4843 12.5495 29.7772 12.7783C29.07 13.0071 28.4886 13.516 28.0329 14.3059L22.0843 24.6088C21.4483 25.7106 20.8673 26.3182 20.342 26.4313C19.7437 26.5513 19.1086 26.4168 18.4357 26.0284V26.0289Z" fill="#335CFF"/>
</svg>
