<svg width="82" height="40" viewBox="0 0 82 40" fill="none" xmlns="http://www.w3.org/2000/svg">
<path d="M75.984 0C77.3837 0 78.4155 0.116562 79.0796 0.349893C79.7435 0.583225 80.219 0.968983 80.5063 1.50738C80.901 2.33279 81.0983 3.44545 81.0983 4.84512V25.6796C81.0983 29.4482 79.7344 32.777 77.0069 35.6662C74.2792 38.5554 70.7978 40 66.5628 40C64.194 40 62.0943 39.4795 60.2639 38.4388C58.6129 37.5416 57.4644 36.734 56.8184 36.0163L56.3876 35.5855C55.0953 34.293 51.5254 28.8638 51.5254 27.9126C51.5254 26.9617 52.1534 25.84 53.4097 24.5479C54.6659 23.2559 56.4166 22.1844 57.3857 22.1844C58.3548 22.1844 61.7712 27.4562 62.9557 28.6407C64.14 29.8249 65.4232 30.4172 66.805 30.4172C68.1867 30.4172 69.3264 29.9506 70.2236 29.0176C71.1209 28.0843 71.5694 26.8461 71.5694 25.3028V5.16822C71.5694 3.01486 71.9284 1.63301 72.6462 1.02288C73.4717 0.340823 74.5841 0 75.9841 0L75.984 0Z" fill="#335CFF"/>
<path d="M36.4404 3.20297C37.662 3.90829 38.5 4.53645 38.9543 5.08787C39.4086 5.63919 39.6167 6.23722 39.5785 6.88238C39.4803 7.84823 39.0556 8.98153 38.3046 10.2821L27.1275 29.6413C25.1058 33.1429 22.1297 35.5489 18.1993 36.8591C14.2686 38.1692 10.4553 37.7573 6.75926 35.6235C4.69191 34.4299 3.13866 32.8884 2.09951 30.9989C1.13991 29.3333 0.570866 28.0042 0.392062 27.0118L0.247351 26.3944C-0.136739 24.5276 -0.073454 23.1522 0.436789 22.2684C0.947033 21.3847 2.0968 20.659 3.88641 20.0915C5.6758 19.5239 6.99332 19.4842 7.83918 19.9725C8.68482 20.4608 9.30694 21.5535 9.7052 23.2508C10.1036 24.9481 10.9056 26.145 12.1116 26.8412C13.3176 27.5374 14.5625 27.6782 15.8461 27.2632C17.1299 26.8482 18.1855 25.9236 19.0134 24.4896L29.815 5.78078C30.9702 3.77984 32.0248 2.67678 32.9787 2.4716C34.065 2.2538 35.2188 2.49766 36.4405 3.20297H36.4404Z" fill="#335CFF"/>
<path d="M33.4746 36.7982C32.253 36.093 31.415 35.4647 30.9607 34.9134C30.5064 34.362 30.2983 33.764 30.3365 33.1189C30.4347 32.153 30.8594 31.0198 31.6104 29.7192L42.7875 10.36C44.8092 6.85832 47.7852 4.45233 51.7158 3.14211C55.6465 1.83199 59.4597 2.24382 63.1558 4.37779C65.2233 5.57145 66.7764 7.11292 67.8157 9.0023C68.7753 10.6679 69.3443 11.997 69.5231 12.9895L69.6679 13.6068C70.0519 15.4737 69.9887 16.849 69.4784 17.7328C68.9683 18.6165 67.8184 19.3423 66.0288 19.9098C64.2394 20.4774 62.9219 20.5171 62.076 20.0287C61.2304 19.5405 60.6083 18.4477 60.21 16.7504C59.8116 15.0532 59.0096 13.8564 57.8036 13.16C56.5976 12.4638 55.3527 12.3232 54.0691 12.7381C52.7854 13.1532 51.7297 14.0777 50.9018 15.5117L40.1002 34.2206C38.945 36.2215 37.8904 37.3246 36.9365 37.5297C35.8502 37.7475 34.6964 37.5037 33.4747 36.7983L33.4746 36.7982Z" fill="#335CFF"/>
</svg>
