<svg width="191" height="189" viewBox="0 0 191 189" fill="none" xmlns="http://www.w3.org/2000/svg">
<g filter="url(#filter0_dd_1323_60795)">
<path d="M1.10547 93.5527C1.10547 42.1903 42.743 0.552734 94.1055 0.552734L96.1055 0.552734C147.468 0.552734 189.105 42.1903 189.105 93.5527C189.105 144.915 147.468 186.553 96.1055 186.553H94.1055C42.743 186.553 1.10547 144.915 1.10547 93.5527Z" fill="#335CFF"/>
<path d="M1.10547 93.5527C1.10547 42.1903 42.743 0.552734 94.1055 0.552734L96.1055 0.552734C147.468 0.552734 189.105 42.1903 189.105 93.5527C189.105 144.915 147.468 186.553 96.1055 186.553H94.1055C42.743 186.553 1.10547 144.915 1.10547 93.5527Z" fill="url(#paint0_linear_1323_60795)" fill-opacity="0.16"/>
<path d="M94.1055 1.05273H96.1055C147.192 1.05273 188.605 42.4664 188.605 93.5527C188.605 144.639 147.192 186.053 96.1055 186.053H94.1055C43.0191 186.053 1.60547 144.639 1.60547 93.5527C1.60547 42.4664 43.0191 1.05273 94.1055 1.05273Z" stroke="url(#paint1_linear_1323_60795)"/>
<path d="M115.355 120.553H74.8555V127.303H68.1055V120.553H64.7305C63.8354 120.553 62.9769 120.197 62.344 119.564C61.711 118.931 61.3555 118.073 61.3555 117.178V66.5527C61.3555 65.6576 61.711 64.7992 62.344 64.1662C62.9769 63.5333 63.8354 63.1777 64.7305 63.1777L125.48 63.1777C126.376 63.1777 127.234 63.5333 127.867 64.1662C128.5 64.7992 128.855 65.6576 128.855 66.5527V117.178C128.855 118.073 128.5 118.931 127.867 119.564C127.234 120.197 126.376 120.553 125.48 120.553H122.105V127.303H115.355V120.553ZM91.7305 99.8775V110.428H98.4805V99.8775C101.655 99.0481 104.418 97.0919 106.256 94.374C108.093 91.656 108.879 88.3623 108.465 85.1077C108.052 81.8532 106.468 78.8603 104.01 76.688C101.551 74.5156 98.3862 73.3123 95.1055 73.3027C91.8173 73.2995 88.641 74.4964 86.1728 76.6689C83.7045 78.8413 82.114 81.8399 81.6997 85.1019C81.2854 88.3638 82.0759 91.6648 83.9228 94.3853C85.7696 97.1058 88.5459 99.0587 91.7305 99.8775ZM95.1055 93.5527C93.3153 93.5527 91.5984 92.8416 90.3325 91.5757C89.0666 90.3098 88.3555 88.5929 88.3555 86.8027C88.3555 85.0125 89.0666 83.2956 90.3325 82.0298C91.5984 80.7639 93.3153 80.0527 95.1055 80.0527C96.8957 80.0527 98.6126 80.7639 99.8784 82.0298C101.144 83.2956 101.855 85.0125 101.855 86.8027C101.855 88.5929 101.144 90.3098 99.8784 91.5757C98.6126 92.8416 96.8957 93.5527 95.1055 93.5527Z" fill="white"/>
</g>
<defs>
<filter id="filter0_dd_1323_60795" x="0.000278234" y="0.000139117" width="190.21" height="188.21" filterUnits="userSpaceOnUse" color-interpolation-filters="sRGB">
<feFlood flood-opacity="0" result="BackgroundImageFix"/>
<feColorMatrix in="SourceAlpha" type="matrix" values="0 0 0 0 0 0 0 0 0 0 0 0 0 0 0 0 0 0 127 0" result="hardAlpha"/>
<feMorphology radius="0.552595" operator="dilate" in="SourceAlpha" result="effect1_dropShadow_1323_60795"/>
<feOffset/>
<feComposite in2="hardAlpha" operator="out"/>
<feColorMatrix type="matrix" values="0 0 0 0 0.2 0 0 0 0 0.36087 0 0 0 0 1 0 0 0 1 0"/>
<feBlend mode="normal" in2="BackgroundImageFix" result="effect1_dropShadow_1323_60795"/>
<feColorMatrix in="SourceAlpha" type="matrix" values="0 0 0 0 0 0 0 0 0 0 0 0 0 0 0 0 0 0 127 0" result="hardAlpha"/>
<feOffset dy="0.552595"/>
<feGaussianBlur stdDeviation="0.552595"/>
<feComposite in2="hardAlpha" operator="out"/>
<feColorMatrix type="matrix" values="0 0 0 0 0.0533333 0 0 0 0 0.0693333 0 0 0 0 0.106667 0 0 0 0.24 0"/>
<feBlend mode="normal" in2="effect1_dropShadow_1323_60795" result="effect2_dropShadow_1323_60795"/>
<feBlend mode="normal" in="SourceGraphic" in2="effect2_dropShadow_1323_60795" result="shape"/>
</filter>
<linearGradient id="paint0_linear_1323_60795" x1="95.1055" y1="0.552734" x2="95.1055" y2="186.553" gradientUnits="userSpaceOnUse">
<stop stop-color="white"/>
<stop offset="1" stop-color="white" stop-opacity="0"/>
</linearGradient>
<linearGradient id="paint1_linear_1323_60795" x1="95.1055" y1="0.552734" x2="95.1055" y2="186.553" gradientUnits="userSpaceOnUse">
<stop stop-color="white" stop-opacity="0.12"/>
<stop offset="1" stop-color="white" stop-opacity="0"/>
</linearGradient>
</defs>
</svg>
