<svg width="191" height="189" viewBox="0 0 191 189" fill="none" xmlns="http://www.w3.org/2000/svg">
<g filter="url(#filter0_dd_1323_60802)">
<path d="M1.10547 93.5527C1.10547 42.1903 42.743 0.552734 94.1055 0.552734L96.1055 0.552734C147.468 0.552734 189.105 42.1903 189.105 93.5527C189.105 144.915 147.468 186.553 96.1055 186.553H94.1055C42.743 186.553 1.10547 144.915 1.10547 93.5527Z" fill="#335CFF"/>
<path d="M1.10547 93.5527C1.10547 42.1903 42.743 0.552734 94.1055 0.552734L96.1055 0.552734C147.468 0.552734 189.105 42.1903 189.105 93.5527C189.105 144.915 147.468 186.553 96.1055 186.553H94.1055C42.743 186.553 1.10547 144.915 1.10547 93.5527Z" fill="url(#paint0_linear_1323_60802)" fill-opacity="0.16"/>
<path d="M94.1055 1.05273H96.1055C147.192 1.05273 188.605 42.4664 188.605 93.5527C188.605 144.639 147.192 186.053 96.1055 186.053H94.1055C43.0191 186.053 1.60547 144.639 1.60547 93.5527C1.60547 42.4664 43.0191 1.05273 94.1055 1.05273Z" stroke="url(#paint1_linear_1323_60802)"/>
<path d="M132.23 93.5527V100.303C132.23 111.487 115.609 120.553 95.1055 120.553C74.9668 120.553 58.5745 111.808 57.9973 100.9L57.9805 100.303V93.5527C57.9805 104.737 74.6023 113.803 95.1055 113.803C115.609 113.803 132.23 104.737 132.23 93.5527ZM95.1055 66.5527C115.609 66.5527 132.23 75.618 132.23 86.8027C132.23 97.9875 115.609 107.053 95.1055 107.053C74.6023 107.053 57.9805 97.9875 57.9805 86.8027C57.9805 75.618 74.6023 66.5527 95.1055 66.5527Z" fill="white"/>
</g>
<defs>
<filter id="filter0_dd_1323_60802" x="0.000278234" y="0.000139117" width="190.21" height="188.21" filterUnits="userSpaceOnUse" color-interpolation-filters="sRGB">
<feFlood flood-opacity="0" result="BackgroundImageFix"/>
<feColorMatrix in="SourceAlpha" type="matrix" values="0 0 0 0 0 0 0 0 0 0 0 0 0 0 0 0 0 0 127 0" result="hardAlpha"/>
<feMorphology radius="0.552595" operator="dilate" in="SourceAlpha" result="effect1_dropShadow_1323_60802"/>
<feOffset/>
<feComposite in2="hardAlpha" operator="out"/>
<feColorMatrix type="matrix" values="0 0 0 0 0.2 0 0 0 0 0.36087 0 0 0 0 1 0 0 0 1 0"/>
<feBlend mode="normal" in2="BackgroundImageFix" result="effect1_dropShadow_1323_60802"/>
<feColorMatrix in="SourceAlpha" type="matrix" values="0 0 0 0 0 0 0 0 0 0 0 0 0 0 0 0 0 0 127 0" result="hardAlpha"/>
<feOffset dy="0.552595"/>
<feGaussianBlur stdDeviation="0.552595"/>
<feComposite in2="hardAlpha" operator="out"/>
<feColorMatrix type="matrix" values="0 0 0 0 0.0533333 0 0 0 0 0.0693333 0 0 0 0 0.106667 0 0 0 0.24 0"/>
<feBlend mode="normal" in2="effect1_dropShadow_1323_60802" result="effect2_dropShadow_1323_60802"/>
<feBlend mode="normal" in="SourceGraphic" in2="effect2_dropShadow_1323_60802" result="shape"/>
</filter>
<linearGradient id="paint0_linear_1323_60802" x1="95.1055" y1="0.552734" x2="95.1055" y2="186.553" gradientUnits="userSpaceOnUse">
<stop stop-color="white"/>
<stop offset="1" stop-color="white" stop-opacity="0"/>
</linearGradient>
<linearGradient id="paint1_linear_1323_60802" x1="95.1055" y1="0.552734" x2="95.1055" y2="186.553" gradientUnits="userSpaceOnUse">
<stop stop-color="white" stop-opacity="0.12"/>
<stop offset="1" stop-color="white" stop-opacity="0"/>
</linearGradient>
</defs>
</svg>
