<svg width="191" height="189" viewBox="0 0 191 189" fill="none" xmlns="http://www.w3.org/2000/svg">
<g filter="url(#filter0_dd_1323_60809)">
<path d="M1.10547 93.5527C1.10547 42.1903 42.743 0.552734 94.1055 0.552734L96.1055 0.552734C147.468 0.552734 189.105 42.1903 189.105 93.5527C189.105 144.915 147.468 186.553 96.1055 186.553H94.1055C42.743 186.553 1.10547 144.915 1.10547 93.5527Z" fill="#335CFF"/>
<path d="M1.10547 93.5527C1.10547 42.1903 42.743 0.552734 94.1055 0.552734L96.1055 0.552734C147.468 0.552734 189.105 42.1903 189.105 93.5527C189.105 144.915 147.468 186.553 96.1055 186.553H94.1055C42.743 186.553 1.10547 144.915 1.10547 93.5527Z" fill="url(#paint0_linear_1323_60809)" fill-opacity="0.16"/>
<path d="M94.1055 1.05273H96.1055C147.192 1.05273 188.605 42.4664 188.605 93.5527C188.605 144.639 147.192 186.053 96.1055 186.053H94.1055C43.0191 186.053 1.60547 144.639 1.60547 93.5527C1.60547 42.4664 43.0191 1.05273 94.1055 1.05273Z" stroke="url(#paint1_linear_1323_60809)"/>
<path d="M64.7305 63.1777L125.48 63.1777C126.376 63.1777 127.234 63.5333 127.867 64.1662C128.5 64.7992 128.855 65.6576 128.855 66.5527V120.553C128.855 121.448 128.5 122.306 127.867 122.939C127.234 123.572 126.376 123.928 125.48 123.928H64.7305C63.8354 123.928 62.9769 123.572 62.344 122.939C61.711 122.306 61.3555 121.448 61.3555 120.553V66.5527C61.3555 65.6576 61.711 64.7992 62.344 64.1662C62.9769 63.5333 63.8354 63.1777 64.7305 63.1777ZM83.293 100.303V107.053H91.7305V113.803H98.4805V107.053H101.855C104.093 107.053 106.239 106.164 107.822 104.581C109.404 102.999 110.293 100.853 110.293 98.6152C110.293 96.3775 109.404 94.2314 107.822 92.649C106.239 91.0667 104.093 90.1777 101.855 90.1777H88.3555C87.9079 90.1777 87.4787 89.9999 87.1622 89.6835C86.8458 89.367 86.668 88.9378 86.668 88.4902C86.668 88.0427 86.8458 87.6135 87.1622 87.297C87.4787 86.9805 87.9079 86.8027 88.3555 86.8027H106.918V80.0527H98.4805V73.3027H91.7305V80.0527H88.3555C86.1177 80.0527 83.9716 80.9417 82.3893 82.524C80.8069 84.1064 79.918 86.2525 79.918 88.4902C79.918 90.728 80.8069 92.8741 82.3893 94.4564C83.9716 96.0388 86.1177 96.9277 88.3555 96.9277H101.855C102.303 96.9277 102.732 97.1055 103.049 97.422C103.365 97.7385 103.543 98.1677 103.543 98.6152C103.543 99.0628 103.365 99.492 103.049 99.8085C102.732 100.125 102.303 100.303 101.855 100.303H83.293Z" fill="white"/>
</g>
<defs>
<filter id="filter0_dd_1323_60809" x="0.000278234" y="0.000139117" width="190.21" height="188.21" filterUnits="userSpaceOnUse" color-interpolation-filters="sRGB">
<feFlood flood-opacity="0" result="BackgroundImageFix"/>
<feColorMatrix in="SourceAlpha" type="matrix" values="0 0 0 0 0 0 0 0 0 0 0 0 0 0 0 0 0 0 127 0" result="hardAlpha"/>
<feMorphology radius="0.552595" operator="dilate" in="SourceAlpha" result="effect1_dropShadow_1323_60809"/>
<feOffset/>
<feComposite in2="hardAlpha" operator="out"/>
<feColorMatrix type="matrix" values="0 0 0 0 0.2 0 0 0 0 0.36087 0 0 0 0 1 0 0 0 1 0"/>
<feBlend mode="normal" in2="BackgroundImageFix" result="effect1_dropShadow_1323_60809"/>
<feColorMatrix in="SourceAlpha" type="matrix" values="0 0 0 0 0 0 0 0 0 0 0 0 0 0 0 0 0 0 127 0" result="hardAlpha"/>
<feOffset dy="0.552595"/>
<feGaussianBlur stdDeviation="0.552595"/>
<feComposite in2="hardAlpha" operator="out"/>
<feColorMatrix type="matrix" values="0 0 0 0 0.0533333 0 0 0 0 0.0693333 0 0 0 0 0.106667 0 0 0 0.24 0"/>
<feBlend mode="normal" in2="effect1_dropShadow_1323_60809" result="effect2_dropShadow_1323_60809"/>
<feBlend mode="normal" in="SourceGraphic" in2="effect2_dropShadow_1323_60809" result="shape"/>
</filter>
<linearGradient id="paint0_linear_1323_60809" x1="95.1055" y1="0.552734" x2="95.1055" y2="186.553" gradientUnits="userSpaceOnUse">
<stop stop-color="white"/>
<stop offset="1" stop-color="white" stop-opacity="0"/>
</linearGradient>
<linearGradient id="paint1_linear_1323_60809" x1="95.1055" y1="0.552734" x2="95.1055" y2="186.553" gradientUnits="userSpaceOnUse">
<stop stop-color="white" stop-opacity="0.12"/>
<stop offset="1" stop-color="white" stop-opacity="0"/>
</linearGradient>
</defs>
</svg>
